<svg width="430" height="932" viewBox="0 0 430 932" fill="none" xmlns="http://www.w3.org/2000/svg">
<rect width="430" height="932" fill="#F9FAFB"/>
<g clip-path="url(#clip0_91_76)">
<path d="M47.351 41.5099C50.148 41.5099 51.8441 39.1369 51.8441 35.337V35.3207C51.8441 31.5207 50.148 29.1559 47.351 29.1559C44.5541 29.1559 42.8743 31.5207 42.8743 35.3207V35.337C42.8743 39.1369 44.5541 41.5099 47.351 41.5099ZM47.351 39.8056C45.8506 39.8056 44.9944 38.1258 44.9944 35.337V35.3207C44.9944 32.5319 45.8506 30.8684 47.351 30.8684C48.8514 30.8684 49.724 32.5319 49.724 35.3207V35.337C49.724 38.1258 48.8514 39.8056 47.351 39.8056ZM58.0324 29.1559C55.4801 29.1559 53.6617 30.901 53.6617 33.2902V33.3065C53.6617 35.5408 55.2436 37.188 57.5024 37.188C59.1169 37.188 60.1444 36.3644 60.5766 35.4348H60.7397C60.7397 35.5245 60.7315 35.6142 60.7315 35.7039C60.6418 37.9545 59.8508 39.7811 57.9835 39.7811C56.9479 39.7811 56.2221 39.2429 55.9123 38.4193L55.8878 38.3378H53.8166L53.8329 38.4275C54.208 40.2296 55.8226 41.5099 57.9835 41.5099C60.9435 41.5099 62.7294 39.1614 62.7294 35.1984V35.182C62.7294 30.9418 60.544 29.1559 58.0324 29.1559ZM58.0243 35.5735C56.6869 35.5735 55.7166 34.5949 55.7166 33.2331V33.2168C55.7166 31.904 56.7522 30.8684 58.0487 30.8684C59.3534 30.8684 60.3727 31.9203 60.3727 33.2658V33.2821C60.3727 34.6112 59.3534 35.5735 58.0243 35.5735ZM66.2267 35.3207C66.9769 35.3207 67.5233 34.758 67.5233 34.0404C67.5233 33.3147 66.9769 32.752 66.2267 32.752C65.4847 32.752 64.9302 33.3147 64.9302 34.0404C64.9302 34.758 65.4847 35.3207 66.2267 35.3207ZM66.2267 41.3794C66.9769 41.3794 67.5233 40.8086 67.5233 40.091C67.5233 39.3653 66.9769 38.8026 66.2267 38.8026C65.4847 38.8026 64.9302 39.3653 64.9302 40.091C64.9302 40.8086 65.4847 41.3794 66.2267 41.3794ZM75.1875 41.2163H77.2017V38.9575H78.7836V37.2207H77.2017V29.4495H74.2253C72.627 31.8795 70.9554 34.5868 69.4305 37.237V38.9575H75.1875V41.2163ZM71.3876 37.2696V37.1473C72.5292 35.1494 73.891 32.9722 75.0978 31.1293H75.2201V37.2696H71.3876ZM83.3736 41.2163H85.4775V29.4495H83.3818L80.3076 31.6104V33.5919L83.235 31.5207H83.3736V41.2163Z" fill="#111828"/>
</g>
<path opacity="0.35" d="M377.721 31.0279C377.721 29.7484 378.759 28.7112 380.038 28.7112H397.541C398.821 28.7112 399.858 29.7484 399.858 31.0279V37.0868C399.858 38.3662 398.821 39.4034 397.541 39.4034H380.038C378.759 39.4034 377.721 38.3662 377.721 37.0868V31.0279Z" stroke="#111828" stroke-width="1.06921"/>
<path opacity="0.4" d="M401.447 31.9818V36.1329C402.296 35.7813 402.848 34.9635 402.848 34.0573C402.848 33.1512 402.296 32.3334 401.447 31.9818Z" fill="#111828"/>
<path d="M379.296 31.6778C379.296 30.8905 379.935 30.2522 380.722 30.2522H396.857C397.645 30.2522 398.283 30.8905 398.283 31.6778V36.4369C398.283 37.2242 397.645 37.8625 396.857 37.8625H380.722C379.935 37.8625 379.296 37.2242 379.296 36.4369V31.6778Z" fill="#111828"/>
<path fill-rule="evenodd" clip-rule="evenodd" d="M363.822 30.6192C366.149 30.6193 368.387 31.5326 370.074 33.1702C370.201 33.2966 370.404 33.295 370.529 33.1666L371.743 31.9153C371.806 31.8501 371.841 31.7619 371.841 31.6701C371.84 31.5783 371.804 31.4905 371.74 31.4262C367.313 27.0935 360.33 27.0935 355.904 31.4262C355.84 31.4905 355.803 31.5782 355.803 31.67C355.802 31.7618 355.837 31.8501 355.901 31.9153L357.115 33.1666C357.24 33.2952 357.443 33.2968 357.57 33.1702C359.257 31.5325 361.495 30.6192 363.822 30.6192ZM363.822 34.6904C365.101 34.6903 366.334 35.1757 367.281 36.0522C367.409 36.1766 367.611 36.1739 367.736 36.0461L368.949 34.7948C369.013 34.7291 369.048 34.6401 369.047 34.5476C369.046 34.4551 369.009 34.3668 368.944 34.3025C366.058 31.5606 361.589 31.5606 358.703 34.3025C358.637 34.3668 358.6 34.4551 358.599 34.5477C358.599 34.6402 358.634 34.7292 358.698 34.7948L359.91 36.0461C360.035 36.1739 360.237 36.1766 360.365 36.0522C361.313 35.1763 362.544 34.6909 363.822 34.6904ZM366.251 37.4295C366.253 37.5223 366.217 37.6118 366.152 37.6768L364.055 39.8387C363.993 39.9022 363.91 39.938 363.822 39.938C363.735 39.938 363.651 39.9022 363.589 39.8387L361.492 37.6768C361.427 37.6117 361.391 37.5222 361.393 37.4294C361.395 37.3366 361.434 37.2488 361.502 37.1866C362.841 36.0294 364.803 36.0294 366.143 37.1866C366.21 37.2488 366.249 37.3367 366.251 37.4295Z" fill="#111828"/>
<path fill-rule="evenodd" clip-rule="evenodd" d="M349.387 28.1766H348.318C347.728 28.1766 347.249 28.6703 347.249 29.2793V38.8354C347.249 39.4443 347.728 39.938 348.318 39.938H349.387C349.978 39.938 350.456 39.4443 350.456 38.8354V29.2793C350.456 28.6703 349.978 28.1766 349.387 28.1766ZM343.328 30.7494H344.398C344.988 30.7494 345.467 31.2431 345.467 31.8521V38.8354C345.467 39.4443 344.988 39.938 344.398 39.938H343.328C342.738 39.938 342.259 39.4443 342.259 38.8354V31.8521C342.259 31.2431 342.738 30.7494 343.328 30.7494ZM339.408 33.3222H338.339C337.748 33.3222 337.27 33.8159 337.27 34.4249V38.8354C337.27 39.4443 337.748 39.938 338.339 39.938H339.408C339.998 39.938 340.477 39.4443 340.477 38.8354V34.4249C340.477 33.8159 339.998 33.3222 339.408 33.3222ZM334.418 35.5275H333.349C332.759 35.5275 332.28 36.0211 332.28 36.6301V38.8354C332.28 39.4443 332.759 39.938 333.349 39.938H334.418C335.009 39.938 335.487 39.4443 335.487 38.8354V36.6301C335.487 36.0211 335.009 35.5275 334.418 35.5275Z" fill="#111828"/>
<path d="M33.968 97.6894V100.175H29.876V113.045H26.796V100.175H22.704V97.6894H33.968ZM47.5453 106.687C47.5453 107.127 47.5159 107.523 47.4573 107.875H38.5473C38.6206 108.755 38.9286 109.445 39.4713 109.943C40.0139 110.442 40.6813 110.691 41.4733 110.691C42.6173 110.691 43.4313 110.2 43.9153 109.217H47.2373C46.8853 110.391 46.2106 111.359 45.2133 112.121C44.2159 112.869 42.9913 113.243 41.5393 113.243C40.3659 113.243 39.3099 112.987 38.3713 112.473C37.4473 111.945 36.7213 111.205 36.1933 110.251C35.6799 109.298 35.4233 108.198 35.4233 106.951C35.4233 105.69 35.6799 104.583 36.1933 103.629C36.7066 102.676 37.4253 101.943 38.3493 101.429C39.2733 100.916 40.3366 100.659 41.5393 100.659C42.6979 100.659 43.7319 100.909 44.6413 101.407C45.5653 101.906 46.2766 102.617 46.7753 103.541C47.2886 104.451 47.5453 105.499 47.5453 106.687ZM44.3553 105.807C44.3406 105.015 44.0546 104.385 43.4973 103.915C42.9399 103.431 42.2579 103.189 41.4513 103.189C40.6886 103.189 40.0433 103.424 39.5153 103.893C39.0019 104.348 38.6866 104.986 38.5693 105.807H44.3553ZM52.8734 96.7654V113.045H49.7934V96.7654H52.8734ZM58.9964 96.7654V113.045H55.9164V96.7654H58.9964ZM78.7877 100.857V113.045H75.6857V111.505C75.2897 112.033 74.769 112.451 74.1237 112.759C73.493 113.053 72.8037 113.199 72.0557 113.199C71.1023 113.199 70.259 113.001 69.5257 112.605C68.7923 112.195 68.213 111.601 67.7877 110.823C67.377 110.031 67.1717 109.093 67.1717 108.007V100.857H70.2517V107.567C70.2517 108.535 70.4937 109.283 70.9777 109.811C71.4617 110.325 72.1217 110.581 72.9577 110.581C73.8083 110.581 74.4757 110.325 74.9597 109.811C75.4437 109.283 75.6857 108.535 75.6857 107.567V100.857H78.7877ZM86.4906 113.243C85.4933 113.243 84.5986 113.067 83.8066 112.715C83.0146 112.349 82.3839 111.857 81.9146 111.241C81.4599 110.625 81.2106 109.943 81.1666 109.195H84.2686C84.3273 109.665 84.5546 110.053 84.9506 110.361C85.3613 110.669 85.8673 110.823 86.4686 110.823C87.0553 110.823 87.5099 110.706 87.8326 110.471C88.1699 110.237 88.3386 109.936 88.3386 109.569C88.3386 109.173 88.1333 108.88 87.7226 108.689C87.3266 108.484 86.6886 108.264 85.8086 108.029C84.8993 107.809 84.1513 107.582 83.5646 107.347C82.9926 107.113 82.4939 106.753 82.0686 106.269C81.6579 105.785 81.4526 105.133 81.4526 104.311C81.4526 103.637 81.6433 103.021 82.0246 102.463C82.4206 101.906 82.9779 101.466 83.6966 101.143C84.4299 100.821 85.2879 100.659 86.2706 100.659C87.7226 100.659 88.8813 101.026 89.7466 101.759C90.6119 102.478 91.0886 103.453 91.1766 104.685H88.2286C88.1846 104.201 87.9793 103.82 87.6126 103.541C87.2606 103.248 86.7839 103.101 86.1826 103.101C85.6253 103.101 85.1926 103.204 84.8846 103.409C84.5913 103.615 84.4446 103.901 84.4446 104.267C84.4446 104.678 84.6499 104.993 85.0606 105.213C85.4713 105.419 86.1093 105.631 86.9746 105.851C87.8546 106.071 88.5806 106.299 89.1526 106.533C89.7246 106.768 90.2159 107.135 90.6266 107.633C91.0519 108.117 91.2719 108.763 91.2866 109.569C91.2866 110.273 91.0886 110.904 90.6926 111.461C90.3113 112.019 89.7539 112.459 89.0206 112.781C88.3019 113.089 87.4586 113.243 86.4906 113.243ZM114.193 100.681C115.689 100.681 116.892 101.143 117.801 102.067C118.725 102.977 119.187 104.253 119.187 105.895V113.045H116.107V106.313C116.107 105.36 115.865 104.634 115.381 104.135C114.897 103.622 114.237 103.365 113.401 103.365C112.565 103.365 111.898 103.622 111.399 104.135C110.915 104.634 110.673 105.36 110.673 106.313V113.045H107.593V106.313C107.593 105.36 107.351 104.634 106.867 104.135C106.383 103.622 105.723 103.365 104.887 103.365C104.036 103.365 103.362 103.622 102.863 104.135C102.379 104.634 102.137 105.36 102.137 106.313V113.045H99.0571V100.857H102.137V102.331C102.533 101.818 103.039 101.415 103.655 101.121C104.286 100.828 104.975 100.681 105.723 100.681C106.676 100.681 107.527 100.887 108.275 101.297C109.023 101.693 109.602 102.265 110.013 103.013C110.409 102.309 110.981 101.745 111.729 101.319C112.492 100.894 113.313 100.681 114.193 100.681ZM127.522 113.243C126.348 113.243 125.292 112.987 124.354 112.473C123.415 111.945 122.674 111.205 122.132 110.251C121.604 109.298 121.34 108.198 121.34 106.951C121.34 105.705 121.611 104.605 122.154 103.651C122.711 102.698 123.466 101.965 124.42 101.451C125.373 100.923 126.436 100.659 127.61 100.659C128.783 100.659 129.846 100.923 130.8 101.451C131.753 101.965 132.501 102.698 133.044 103.651C133.601 104.605 133.88 105.705 133.88 106.951C133.88 108.198 133.594 109.298 133.022 110.251C132.464 111.205 131.702 111.945 130.734 112.473C129.78 112.987 128.71 113.243 127.522 113.243ZM127.522 110.559C128.079 110.559 128.6 110.427 129.084 110.163C129.582 109.885 129.978 109.474 130.272 108.931C130.565 108.389 130.712 107.729 130.712 106.951C130.712 105.793 130.404 104.905 129.788 104.289C129.186 103.659 128.446 103.343 127.566 103.343C126.686 103.343 125.945 103.659 125.344 104.289C124.757 104.905 124.464 105.793 124.464 106.951C124.464 108.11 124.75 109.005 125.322 109.635C125.908 110.251 126.642 110.559 127.522 110.559ZM139.219 102.749C139.615 102.104 140.128 101.598 140.759 101.231C141.404 100.865 142.138 100.681 142.959 100.681V103.915H142.145C141.177 103.915 140.444 104.143 139.945 104.597C139.461 105.052 139.219 105.844 139.219 106.973V113.045H136.139V100.857H139.219V102.749ZM156.364 106.687C156.364 107.127 156.334 107.523 156.276 107.875H147.366C147.439 108.755 147.747 109.445 148.29 109.943C148.832 110.442 149.5 110.691 150.292 110.691C151.436 110.691 152.25 110.2 152.734 109.217H156.056C155.704 110.391 155.029 111.359 154.032 112.121C153.034 112.869 151.81 113.243 150.358 113.243C149.184 113.243 148.128 112.987 147.19 112.473C146.266 111.945 145.54 111.205 145.012 110.251C144.498 109.298 144.242 108.198 144.242 106.951C144.242 105.69 144.498 104.583 145.012 103.629C145.525 102.676 146.244 101.943 147.168 101.429C148.092 100.916 149.155 100.659 150.358 100.659C151.516 100.659 152.55 100.909 153.46 101.407C154.384 101.906 155.095 102.617 155.594 103.541C156.107 104.451 156.364 105.499 156.364 106.687ZM153.174 105.807C153.159 105.015 152.873 104.385 152.316 103.915C151.758 103.431 151.076 103.189 150.27 103.189C149.507 103.189 148.862 103.424 148.334 103.893C147.82 104.348 147.505 104.986 147.388 105.807H153.174ZM163.062 106.907C163.062 105.675 163.304 104.583 163.788 103.629C164.287 102.676 164.954 101.943 165.79 101.429C166.641 100.916 167.587 100.659 168.628 100.659C169.537 100.659 170.329 100.843 171.004 101.209C171.693 101.576 172.243 102.038 172.654 102.595V100.857H175.756V113.045H172.654V111.263C172.258 111.835 171.708 112.312 171.004 112.693C170.315 113.06 169.515 113.243 168.606 113.243C167.579 113.243 166.641 112.979 165.79 112.451C164.954 111.923 164.287 111.183 163.788 110.229C163.304 109.261 163.062 108.154 163.062 106.907ZM172.654 106.951C172.654 106.203 172.507 105.565 172.214 105.037C171.921 104.495 171.525 104.084 171.026 103.805C170.527 103.512 169.992 103.365 169.42 103.365C168.848 103.365 168.32 103.505 167.836 103.783C167.352 104.062 166.956 104.473 166.648 105.015C166.355 105.543 166.208 106.174 166.208 106.907C166.208 107.641 166.355 108.286 166.648 108.843C166.956 109.386 167.352 109.804 167.836 110.097C168.335 110.391 168.863 110.537 169.42 110.537C169.992 110.537 170.527 110.398 171.026 110.119C171.525 109.826 171.921 109.415 172.214 108.887C172.507 108.345 172.654 107.699 172.654 106.951ZM181.844 102.639C182.24 102.053 182.783 101.576 183.472 101.209C184.176 100.843 184.975 100.659 185.87 100.659C186.911 100.659 187.85 100.916 188.686 101.429C189.537 101.943 190.204 102.676 190.688 103.629C191.187 104.568 191.436 105.661 191.436 106.907C191.436 108.154 191.187 109.261 190.688 110.229C190.204 111.183 189.537 111.923 188.686 112.451C187.85 112.979 186.911 113.243 185.87 113.243C184.961 113.243 184.161 113.067 183.472 112.715C182.797 112.349 182.255 111.879 181.844 111.307V113.045H178.764V96.7654H181.844V102.639ZM188.29 106.907C188.29 106.174 188.136 105.543 187.828 105.015C187.535 104.473 187.139 104.062 186.64 103.783C186.156 103.505 185.628 103.365 185.056 103.365C184.499 103.365 183.971 103.512 183.472 103.805C182.988 104.084 182.592 104.495 182.284 105.037C181.991 105.58 181.844 106.218 181.844 106.951C181.844 107.685 181.991 108.323 182.284 108.865C182.592 109.408 182.988 109.826 183.472 110.119C183.971 110.398 184.499 110.537 185.056 110.537C185.628 110.537 186.156 110.391 186.64 110.097C187.139 109.804 187.535 109.386 187.828 108.843C188.136 108.301 188.29 107.655 188.29 106.907ZM199.086 113.243C197.913 113.243 196.857 112.987 195.918 112.473C194.98 111.945 194.239 111.205 193.696 110.251C193.168 109.298 192.904 108.198 192.904 106.951C192.904 105.705 193.176 104.605 193.718 103.651C194.276 102.698 195.031 101.965 195.984 101.451C196.938 100.923 198.001 100.659 199.174 100.659C200.348 100.659 201.411 100.923 202.364 101.451C203.318 101.965 204.066 102.698 204.608 103.651C205.166 104.605 205.444 105.705 205.444 106.951C205.444 108.198 205.158 109.298 204.586 110.251C204.029 111.205 203.266 111.945 202.298 112.473C201.345 112.987 200.274 113.243 199.086 113.243ZM199.086 110.559C199.644 110.559 200.164 110.427 200.648 110.163C201.147 109.885 201.543 109.474 201.836 108.931C202.13 108.389 202.276 107.729 202.276 106.951C202.276 105.793 201.968 104.905 201.352 104.289C200.751 103.659 200.01 103.343 199.13 103.343C198.25 103.343 197.51 103.659 196.908 104.289C196.322 104.905 196.028 105.793 196.028 106.951C196.028 108.11 196.314 109.005 196.886 109.635C197.473 110.251 198.206 110.559 199.086 110.559ZM219.21 100.857V113.045H216.108V111.505C215.712 112.033 215.191 112.451 214.546 112.759C213.915 113.053 213.226 113.199 212.478 113.199C211.524 113.199 210.681 113.001 209.948 112.605C209.214 112.195 208.635 111.601 208.21 110.823C207.799 110.031 207.594 109.093 207.594 108.007V100.857H210.674V107.567C210.674 108.535 210.916 109.283 211.4 109.811C211.884 110.325 212.544 110.581 213.38 110.581C214.23 110.581 214.898 110.325 215.382 109.811C215.866 109.283 216.108 108.535 216.108 107.567V100.857H219.21ZM225.834 103.387V109.283C225.834 109.694 225.93 109.995 226.12 110.185C226.326 110.361 226.663 110.449 227.132 110.449H228.562V113.045H226.626C224.03 113.045 222.732 111.784 222.732 109.261V103.387H221.28V100.857H222.732V97.8434H225.834V100.857H228.562V103.387H225.834ZM247.68 100.857L240.134 118.809H236.856L239.496 112.737L234.612 100.857H238.066L241.212 109.371L244.402 100.857H247.68ZM254.752 113.243C253.579 113.243 252.523 112.987 251.584 112.473C250.646 111.945 249.905 111.205 249.362 110.251C248.834 109.298 248.57 108.198 248.57 106.951C248.57 105.705 248.842 104.605 249.384 103.651C249.942 102.698 250.697 101.965 251.65 101.451C252.604 100.923 253.667 100.659 254.84 100.659C256.014 100.659 257.077 100.923 258.03 101.451C258.984 101.965 259.732 102.698 260.274 103.651C260.832 104.605 261.11 105.705 261.11 106.951C261.11 108.198 260.824 109.298 260.252 110.251C259.695 111.205 258.932 111.945 257.964 112.473C257.011 112.987 255.94 113.243 254.752 113.243ZM254.752 110.559C255.31 110.559 255.83 110.427 256.314 110.163C256.813 109.885 257.209 109.474 257.502 108.931C257.796 108.389 257.942 107.729 257.942 106.951C257.942 105.793 257.634 104.905 257.018 104.289C256.417 103.659 255.676 103.343 254.796 103.343C253.916 103.343 253.176 103.659 252.574 104.289C251.988 104.905 251.694 105.793 251.694 106.951C251.694 108.11 251.98 109.005 252.552 109.635C253.139 110.251 253.872 110.559 254.752 110.559ZM274.876 100.857V113.045H271.774V111.505C271.378 112.033 270.857 112.451 270.212 112.759C269.581 113.053 268.892 113.199 268.144 113.199C267.19 113.199 266.347 113.001 265.614 112.605C264.88 112.195 264.301 111.601 263.876 110.823C263.465 110.031 263.26 109.093 263.26 108.007V100.857H266.34V107.567C266.34 108.535 266.582 109.283 267.066 109.811C267.55 110.325 268.21 110.581 269.046 110.581C269.896 110.581 270.564 110.325 271.048 109.811C271.532 109.283 271.774 108.535 271.774 107.567V100.857H274.876ZM280.994 102.749C281.39 102.104 281.904 101.598 282.534 101.231C283.18 100.865 283.913 100.681 284.734 100.681V103.915H283.92C282.952 103.915 282.219 104.143 281.72 104.597C281.236 105.052 280.994 105.844 280.994 106.973V113.045H277.914V100.857H280.994V102.749ZM291.259 106.907C291.259 105.675 291.501 104.583 291.985 103.629C292.484 102.676 293.159 101.943 294.009 101.429C294.86 100.916 295.806 100.659 296.847 100.659C297.639 100.659 298.395 100.835 299.113 101.187C299.832 101.525 300.404 101.979 300.829 102.551V96.7654H303.953V113.045H300.829V111.241C300.448 111.843 299.913 112.327 299.223 112.693C298.534 113.06 297.735 113.243 296.825 113.243C295.799 113.243 294.86 112.979 294.009 112.451C293.159 111.923 292.484 111.183 291.985 110.229C291.501 109.261 291.259 108.154 291.259 106.907ZM300.851 106.951C300.851 106.203 300.705 105.565 300.411 105.037C300.118 104.495 299.722 104.084 299.223 103.805C298.725 103.512 298.189 103.365 297.617 103.365C297.045 103.365 296.517 103.505 296.033 103.783C295.549 104.062 295.153 104.473 294.845 105.015C294.552 105.543 294.405 106.174 294.405 106.907C294.405 107.641 294.552 108.286 294.845 108.843C295.153 109.386 295.549 109.804 296.033 110.097C296.532 110.391 297.06 110.537 297.617 110.537C298.189 110.537 298.725 110.398 299.223 110.119C299.722 109.826 300.118 109.415 300.411 108.887C300.705 108.345 300.851 107.699 300.851 106.951ZM306.169 106.907C306.169 105.675 306.411 104.583 306.895 103.629C307.394 102.676 308.061 101.943 308.897 101.429C309.748 100.916 310.694 100.659 311.735 100.659C312.645 100.659 313.437 100.843 314.111 101.209C314.801 101.576 315.351 102.038 315.761 102.595V100.857H318.863V113.045H315.761V111.263C315.365 111.835 314.815 112.312 314.111 112.693C313.422 113.06 312.623 113.243 311.713 113.243C310.687 113.243 309.748 112.979 308.897 112.451C308.061 111.923 307.394 111.183 306.895 110.229C306.411 109.261 306.169 108.154 306.169 106.907ZM315.761 106.951C315.761 106.203 315.615 105.565 315.321 105.037C315.028 104.495 314.632 104.084 314.133 103.805C313.635 103.512 313.099 103.365 312.527 103.365C311.955 103.365 311.427 103.505 310.943 103.783C310.459 104.062 310.063 104.473 309.755 105.015C309.462 105.543 309.315 106.174 309.315 106.907C309.315 107.641 309.462 108.286 309.755 108.843C310.063 109.386 310.459 109.804 310.943 110.097C311.442 110.391 311.97 110.537 312.527 110.537C313.099 110.537 313.635 110.398 314.133 110.119C314.632 109.826 315.028 109.415 315.321 108.887C315.615 108.345 315.761 107.699 315.761 106.951ZM333.532 100.857L325.986 118.809H322.708L325.348 112.737L320.464 100.857H323.918L327.064 109.371L330.254 100.857H333.532Z" fill="black"/>
<g clip-path="url(#clip1_91_76)">
<rect x="10" y="146.045" width="410" height="200" rx="16" fill="#979797" fill-opacity="0.2"/>
<path d="M30.6364 164.925V166.413H27.6764V176.045H25.8524V166.413H22.8764V164.925H30.6364ZM36.4357 176.189C35.6037 176.189 34.8517 176.003 34.1797 175.629C33.5077 175.245 32.9797 174.712 32.5957 174.029C32.2117 173.336 32.0197 172.536 32.0197 171.629C32.0197 170.733 32.217 169.939 32.6117 169.245C33.0064 168.552 33.545 168.019 34.2277 167.645C34.9104 167.272 35.673 167.085 36.5157 167.085C37.3584 167.085 38.121 167.272 38.8037 167.645C39.4864 168.019 40.025 168.552 40.4197 169.245C40.8144 169.939 41.0117 170.733 41.0117 171.629C41.0117 172.525 40.809 173.32 40.4037 174.013C39.9984 174.707 39.4437 175.245 38.7397 175.629C38.0464 176.003 37.2784 176.189 36.4357 176.189ZM36.4357 174.605C36.905 174.605 37.3424 174.493 37.7477 174.269C38.1637 174.045 38.4997 173.709 38.7557 173.261C39.0117 172.813 39.1397 172.269 39.1397 171.629C39.1397 170.989 39.017 170.451 38.7717 170.013C38.5264 169.565 38.201 169.229 37.7957 169.005C37.3904 168.781 36.953 168.669 36.4837 168.669C36.0144 168.669 35.577 168.781 35.1717 169.005C34.777 169.229 34.4624 169.565 34.2277 170.013C33.993 170.451 33.8757 170.989 33.8757 171.629C33.8757 172.579 34.1157 173.315 34.5957 173.837C35.0864 174.349 35.6997 174.605 36.4357 174.605ZM42.3348 171.597C42.3348 170.712 42.5161 169.928 42.8788 169.245C43.2521 168.563 43.7535 168.035 44.3828 167.661C45.0228 167.277 45.7321 167.085 46.5108 167.085C47.0868 167.085 47.6521 167.213 48.2068 167.469C48.7721 167.715 49.2201 168.045 49.5508 168.461V164.205H51.3908V176.045H49.5508V174.717C49.2521 175.144 48.8361 175.496 48.3028 175.773C47.7801 176.051 47.1775 176.189 46.4948 176.189C45.7268 176.189 45.0228 175.997 44.3828 175.613C43.7535 175.219 43.2521 174.675 42.8788 173.981C42.5161 173.277 42.3348 172.483 42.3348 171.597ZM49.5508 171.629C49.5508 171.021 49.4228 170.493 49.1668 170.045C48.9215 169.597 48.5961 169.256 48.1908 169.021C47.7855 168.787 47.3481 168.669 46.8788 168.669C46.4095 168.669 45.9721 168.787 45.5668 169.021C45.1615 169.245 44.8308 169.581 44.5748 170.029C44.3295 170.467 44.2068 170.989 44.2068 171.597C44.2068 172.205 44.3295 172.739 44.5748 173.197C44.8308 173.656 45.1615 174.008 45.5668 174.253C45.9828 174.488 46.4201 174.605 46.8788 174.605C47.3481 174.605 47.7855 174.488 48.1908 174.253C48.5961 174.019 48.9215 173.677 49.1668 173.229C49.4228 172.771 49.5508 172.237 49.5508 171.629ZM53.3066 171.597C53.3066 170.712 53.4879 169.928 53.8506 169.245C54.2239 168.563 54.7252 168.035 55.3546 167.661C55.9946 167.277 56.6986 167.085 57.4666 167.085C58.1599 167.085 58.7626 167.224 59.2746 167.501C59.7972 167.768 60.2132 168.104 60.5226 168.509V167.229H62.3626V176.045H60.5226V174.733C60.2132 175.149 59.7919 175.496 59.2586 175.773C58.7252 176.051 58.1172 176.189 57.4346 176.189C56.6772 176.189 55.9839 175.997 55.3546 175.613C54.7252 175.219 54.2239 174.675 53.8506 173.981C53.4879 173.277 53.3066 172.483 53.3066 171.597ZM60.5226 171.629C60.5226 171.021 60.3946 170.493 60.1386 170.045C59.8932 169.597 59.5679 169.256 59.1626 169.021C58.7572 168.787 58.3199 168.669 57.8506 168.669C57.3812 168.669 56.9439 168.787 56.5386 169.021C56.1332 169.245 55.8026 169.581 55.5466 170.029C55.3012 170.467 55.1786 170.989 55.1786 171.597C55.1786 172.205 55.3012 172.739 55.5466 173.197C55.8026 173.656 56.1332 174.008 56.5386 174.253C56.9546 174.488 57.3919 174.605 57.8506 174.605C58.3199 174.605 58.7572 174.488 59.1626 174.253C59.5679 174.019 59.8932 173.677 60.1386 173.229C60.3946 172.771 60.5226 172.237 60.5226 171.629ZM72.8223 167.229L67.4143 180.189H65.5263L67.3183 175.901L63.8463 167.229H65.8783L68.3583 173.949L70.9343 167.229H72.8223ZM80.4351 164.925V176.045H78.6111V164.925H80.4351ZM90.9381 168.717H89.3061V176.045H87.4661V168.717H86.4261V167.229H87.4661V166.605C87.4661 165.592 87.7327 164.856 88.2661 164.397C88.8101 163.928 89.6581 163.693 90.8101 163.693V165.213C90.2554 165.213 89.8661 165.32 89.6421 165.533C89.4181 165.736 89.3061 166.093 89.3061 166.605V167.229H90.9381V168.717ZM100.763 171.421C100.763 171.752 100.741 172.051 100.699 172.317H93.9626C94.0159 173.021 94.2772 173.587 94.7466 174.013C95.2159 174.44 95.7919 174.653 96.4746 174.653C97.4559 174.653 98.1492 174.243 98.5546 173.421H100.523C100.256 174.232 99.7706 174.899 99.0666 175.421C98.3732 175.933 97.5092 176.189 96.4746 176.189C95.6319 176.189 94.8746 176.003 94.2026 175.629C93.5412 175.245 93.0186 174.712 92.6346 174.029C92.2612 173.336 92.0746 172.536 92.0746 171.629C92.0746 170.723 92.2559 169.928 92.6186 169.245C92.9919 168.552 93.5092 168.019 94.1706 167.645C94.8426 167.272 95.6106 167.085 96.4746 167.085C97.3066 167.085 98.0479 167.267 98.6986 167.629C99.3492 167.992 99.8559 168.504 100.219 169.165C100.581 169.816 100.763 170.568 100.763 171.421ZM98.8586 170.845C98.8479 170.173 98.6079 169.635 98.1386 169.229C97.6692 168.824 97.0879 168.621 96.3946 168.621C95.7652 168.621 95.2266 168.824 94.7786 169.229C94.3306 169.624 94.0639 170.163 93.9786 170.845H98.8586ZM104.51 164.205V176.045H102.686V164.205H104.51ZM109.16 168.717V173.597C109.16 173.928 109.235 174.168 109.384 174.317C109.544 174.456 109.811 174.525 110.184 174.525H111.304V176.045H109.864C109.043 176.045 108.414 175.853 107.976 175.469C107.539 175.085 107.32 174.461 107.32 173.597V168.717H106.28V167.229H107.32V165.037H109.16V167.229H111.304V168.717H109.16ZM113.849 176.157C113.519 176.157 113.241 176.045 113.017 175.821C112.793 175.597 112.681 175.32 112.681 174.989C112.681 174.659 112.793 174.381 113.017 174.157C113.241 173.933 113.519 173.821 113.849 173.821C114.169 173.821 114.441 173.933 114.665 174.157C114.889 174.381 115.001 174.659 115.001 174.989C115.001 175.32 114.889 175.597 114.665 175.821C114.441 176.045 114.169 176.157 113.849 176.157ZM117.837 176.157C117.506 176.157 117.229 176.045 117.005 175.821C116.781 175.597 116.669 175.32 116.669 174.989C116.669 174.659 116.781 174.381 117.005 174.157C117.229 173.933 117.506 173.821 117.837 173.821C118.157 173.821 118.429 173.933 118.653 174.157C118.877 174.381 118.989 174.659 118.989 174.989C118.989 175.32 118.877 175.597 118.653 175.821C118.429 176.045 118.157 176.157 117.837 176.157ZM121.824 176.157C121.494 176.157 121.216 176.045 120.992 175.821C120.768 175.597 120.656 175.32 120.656 174.989C120.656 174.659 120.768 174.381 120.992 174.157C121.216 173.933 121.494 173.821 121.824 173.821C122.144 173.821 122.416 173.933 122.64 174.157C122.864 174.381 122.976 174.659 122.976 174.989C122.976 175.32 122.864 175.597 122.64 175.821C122.416 176.045 122.144 176.157 121.824 176.157Z" fill="#979797"/>
<g clip-path="url(#clip2_91_76)">
<g clip-path="url(#clip3_91_76)">
<rect x="22" y="294.045" width="40" height="40" rx="20" fill="white"/>
<path d="M42 304.045C41.2044 304.045 40.4413 304.361 39.8787 304.924C39.3161 305.487 39 306.25 39 307.045V314.045C39 314.841 39.3161 315.604 39.8787 316.167C40.4413 316.729 41.2044 317.045 42 317.045C42.7956 317.045 43.5587 316.729 44.1213 316.167C44.6839 315.604 45 314.841 45 314.045V307.045C45 306.25 44.6839 305.487 44.1213 304.924C43.5587 304.361 42.7956 304.045 42 304.045Z" stroke="black" stroke-width="2" stroke-linecap="round" stroke-linejoin="round"/>
<path d="M49 312.045V314.045C49 315.902 48.2625 317.682 46.9497 318.995C45.637 320.308 43.8565 321.045 42 321.045C40.1435 321.045 38.363 320.308 37.0503 318.995C35.7375 317.682 35 315.902 35 314.045V312.045" stroke="black" stroke-width="2" stroke-linecap="round" stroke-linejoin="round"/>
<path d="M42 321.045V324.045" stroke="black" stroke-width="2" stroke-linecap="round" stroke-linejoin="round"/>
</g>
</g>
</g>
<path d="M26.554 378.689V388.193C26.554 389.235 26.8253 390.034 27.368 390.591C27.9107 391.134 28.6733 391.405 29.656 391.405C30.6533 391.405 31.4233 391.134 31.966 390.591C32.5087 390.034 32.78 389.235 32.78 388.193V378.689H35.882V388.171C35.882 389.477 35.596 390.584 35.024 391.493C34.4667 392.388 33.7113 393.063 32.758 393.517C31.8193 393.972 30.7707 394.199 29.612 394.199C28.468 394.199 27.4267 393.972 26.488 393.517C25.564 393.063 24.8307 392.388 24.288 391.493C23.7453 390.584 23.474 389.477 23.474 388.171V378.689H26.554ZM41.9378 383.617C42.3338 383.06 42.8765 382.598 43.5658 382.231C44.2698 381.85 45.0692 381.659 45.9638 381.659C47.0052 381.659 47.9438 381.916 48.7798 382.429C49.6305 382.943 50.2978 383.676 50.7818 384.629C51.2805 385.568 51.5298 386.661 51.5298 387.907C51.5298 389.154 51.2805 390.261 50.7818 391.229C50.2978 392.183 49.6305 392.923 48.7798 393.451C47.9438 393.979 47.0052 394.243 45.9638 394.243C45.0692 394.243 44.2772 394.06 43.5878 393.693C42.9132 393.327 42.3632 392.865 41.9378 392.307V399.853H38.8578V381.857H41.9378V383.617ZM48.3838 387.907C48.3838 387.174 48.2298 386.543 47.9218 386.015C47.6285 385.473 47.2325 385.062 46.7338 384.783C46.2498 384.505 45.7218 384.365 45.1498 384.365C44.5925 384.365 44.0645 384.512 43.5658 384.805C43.0818 385.084 42.6858 385.495 42.3778 386.037C42.0845 386.58 41.9378 387.218 41.9378 387.951C41.9378 388.685 42.0845 389.323 42.3778 389.865C42.6858 390.408 43.0818 390.826 43.5658 391.119C44.0645 391.398 44.5925 391.537 45.1498 391.537C45.7218 391.537 46.2498 391.391 46.7338 391.097C47.2325 390.804 47.6285 390.386 47.9218 389.843C48.2298 389.301 48.3838 388.655 48.3838 387.907ZM56.848 377.765V394.045H53.768V377.765H56.848ZM65.303 394.243C64.1297 394.243 63.0737 393.987 62.135 393.473C61.1964 392.945 60.4557 392.205 59.913 391.251C59.385 390.298 59.121 389.198 59.121 387.951C59.121 386.705 59.3924 385.605 59.935 384.651C60.4924 383.698 61.2477 382.965 62.201 382.451C63.1544 381.923 64.2177 381.659 65.391 381.659C66.5644 381.659 67.6277 381.923 68.581 382.451C69.5344 382.965 70.2824 383.698 70.825 384.651C71.3824 385.605 71.661 386.705 71.661 387.951C71.661 389.198 71.375 390.298 70.803 391.251C70.2457 392.205 69.483 392.945 68.515 393.473C67.5617 393.987 66.491 394.243 65.303 394.243ZM65.303 391.559C65.8604 391.559 66.381 391.427 66.865 391.163C67.3637 390.885 67.7597 390.474 68.053 389.931C68.3464 389.389 68.493 388.729 68.493 387.951C68.493 386.793 68.185 385.905 67.569 385.289C66.9677 384.659 66.227 384.343 65.347 384.343C64.467 384.343 63.7264 384.659 63.125 385.289C62.5384 385.905 62.245 386.793 62.245 387.951C62.245 389.11 62.531 390.005 63.103 390.635C63.6897 391.251 64.423 391.559 65.303 391.559ZM73.1283 387.907C73.1283 386.675 73.3703 385.583 73.8543 384.629C74.353 383.676 75.0203 382.943 75.8563 382.429C76.707 381.916 77.653 381.659 78.6943 381.659C79.6037 381.659 80.3957 381.843 81.0703 382.209C81.7597 382.576 82.3097 383.038 82.7203 383.595V381.857H85.8223V394.045H82.7203V392.263C82.3243 392.835 81.7743 393.312 81.0703 393.693C80.381 394.06 79.5817 394.243 78.6723 394.243C77.6457 394.243 76.707 393.979 75.8563 393.451C75.0203 392.923 74.353 392.183 73.8543 391.229C73.3703 390.261 73.1283 389.154 73.1283 387.907ZM82.7203 387.951C82.7203 387.203 82.5737 386.565 82.2803 386.037C81.987 385.495 81.591 385.084 81.0923 384.805C80.5937 384.512 80.0583 384.365 79.4863 384.365C78.9143 384.365 78.3863 384.505 77.9023 384.783C77.4183 385.062 77.0223 385.473 76.7143 386.015C76.421 386.543 76.2743 387.174 76.2743 387.907C76.2743 388.641 76.421 389.286 76.7143 389.843C77.0223 390.386 77.4183 390.804 77.9023 391.097C78.401 391.391 78.929 391.537 79.4863 391.537C80.0583 391.537 80.5937 391.398 81.0923 391.119C81.591 390.826 81.987 390.415 82.2803 389.887C82.5737 389.345 82.7203 388.699 82.7203 387.951ZM88.0385 387.907C88.0385 386.675 88.2805 385.583 88.7645 384.629C89.2632 383.676 89.9378 382.943 90.7885 382.429C91.6392 381.916 92.5852 381.659 93.6265 381.659C94.4185 381.659 95.1738 381.835 95.8925 382.187C96.6112 382.525 97.1832 382.979 97.6085 383.551V377.765H100.733V394.045H97.6085V392.241C97.2272 392.843 96.6918 393.327 96.0025 393.693C95.3132 394.06 94.5138 394.243 93.6045 394.243C92.5778 394.243 91.6392 393.979 90.7885 393.451C89.9378 392.923 89.2632 392.183 88.7645 391.229C88.2805 390.261 88.0385 389.154 88.0385 387.907ZM97.6305 387.951C97.6305 387.203 97.4838 386.565 97.1905 386.037C96.8972 385.495 96.5012 385.084 96.0025 384.805C95.5038 384.512 94.9685 384.365 94.3965 384.365C93.8245 384.365 93.2965 384.505 92.8125 384.783C92.3285 385.062 91.9325 385.473 91.6245 386.015C91.3312 386.543 91.1845 387.174 91.1845 387.907C91.1845 388.641 91.3312 389.286 91.6245 389.843C91.9325 390.386 92.3285 390.804 92.8125 391.097C93.3112 391.391 93.8392 391.537 94.3965 391.537C94.9685 391.537 95.5038 391.398 96.0025 391.119C96.5012 390.826 96.8972 390.415 97.1905 389.887C97.4838 389.345 97.6305 388.699 97.6305 387.951ZM120.643 381.857L113.097 399.809H109.819L112.459 393.737L107.575 381.857H111.029L114.175 390.371L117.365 381.857H120.643ZM127.715 394.243C126.542 394.243 125.486 393.987 124.547 393.473C123.608 392.945 122.868 392.205 122.325 391.251C121.797 390.298 121.533 389.198 121.533 387.951C121.533 386.705 121.804 385.605 122.347 384.651C122.904 383.698 123.66 382.965 124.613 382.451C125.566 381.923 126.63 381.659 127.803 381.659C128.976 381.659 130.04 381.923 130.993 382.451C131.946 382.965 132.694 383.698 133.237 384.651C133.794 385.605 134.073 386.705 134.073 387.951C134.073 389.198 133.787 390.298 133.215 391.251C132.658 392.205 131.895 392.945 130.927 393.473C129.974 393.987 128.903 394.243 127.715 394.243ZM127.715 391.559C128.272 391.559 128.793 391.427 129.277 391.163C129.776 390.885 130.172 390.474 130.465 389.931C130.758 389.389 130.905 388.729 130.905 387.951C130.905 386.793 130.597 385.905 129.981 385.289C129.38 384.659 128.639 384.343 127.759 384.343C126.879 384.343 126.138 384.659 125.537 385.289C124.95 385.905 124.657 386.793 124.657 387.951C124.657 389.11 124.943 390.005 125.515 390.635C126.102 391.251 126.835 391.559 127.715 391.559ZM147.838 381.857V394.045H144.736V392.505C144.34 393.033 143.82 393.451 143.174 393.759C142.544 394.053 141.854 394.199 141.106 394.199C140.153 394.199 139.31 394.001 138.576 393.605C137.843 393.195 137.264 392.601 136.838 391.823C136.428 391.031 136.222 390.093 136.222 389.007V381.857H139.302V388.567C139.302 389.535 139.544 390.283 140.028 390.811C140.512 391.325 141.172 391.581 142.008 391.581C142.859 391.581 143.526 391.325 144.01 390.811C144.494 390.283 144.736 389.535 144.736 388.567V381.857H147.838ZM153.957 383.749C154.353 383.104 154.867 382.598 155.497 382.231C156.143 381.865 156.876 381.681 157.697 381.681V384.915H156.883C155.915 384.915 155.182 385.143 154.683 385.597C154.199 386.052 153.957 386.844 153.957 387.973V394.045H150.877V381.857H153.957V383.749ZM168.094 383.617C168.49 383.06 169.033 382.598 169.722 382.231C170.426 381.85 171.225 381.659 172.12 381.659C173.161 381.659 174.1 381.916 174.936 382.429C175.787 382.943 176.454 383.676 176.938 384.629C177.437 385.568 177.686 386.661 177.686 387.907C177.686 389.154 177.437 390.261 176.938 391.229C176.454 392.183 175.787 392.923 174.936 393.451C174.1 393.979 173.161 394.243 172.12 394.243C171.225 394.243 170.433 394.06 169.744 393.693C169.069 393.327 168.519 392.865 168.094 392.307V399.853H165.014V381.857H168.094V383.617ZM174.54 387.907C174.54 387.174 174.386 386.543 174.078 386.015C173.785 385.473 173.389 385.062 172.89 384.783C172.406 384.505 171.878 384.365 171.306 384.365C170.749 384.365 170.221 384.512 169.722 384.805C169.238 385.084 168.842 385.495 168.534 386.037C168.241 386.58 168.094 387.218 168.094 387.951C168.094 388.685 168.241 389.323 168.534 389.865C168.842 390.408 169.238 390.826 169.722 391.119C170.221 391.398 170.749 391.537 171.306 391.537C171.878 391.537 172.406 391.391 172.89 391.097C173.389 390.804 173.785 390.386 174.078 389.843C174.386 389.301 174.54 388.655 174.54 387.907ZM186.788 381.681C187.712 381.681 188.534 381.887 189.252 382.297C189.971 382.693 190.528 383.287 190.924 384.079C191.335 384.857 191.54 385.795 191.54 386.895V394.045H188.46V387.313C188.46 386.345 188.218 385.605 187.734 385.091C187.25 384.563 186.59 384.299 185.754 384.299C184.904 384.299 184.229 384.563 183.73 385.091C183.246 385.605 183.004 386.345 183.004 387.313V394.045H179.924V377.765H183.004V383.375C183.4 382.847 183.928 382.437 184.588 382.143C185.248 381.835 185.982 381.681 186.788 381.681ZM199.881 394.243C198.708 394.243 197.652 393.987 196.713 393.473C195.775 392.945 195.034 392.205 194.491 391.251C193.963 390.298 193.699 389.198 193.699 387.951C193.699 386.705 193.971 385.605 194.513 384.651C195.071 383.698 195.826 382.965 196.779 382.451C197.733 381.923 198.796 381.659 199.969 381.659C201.143 381.659 202.206 381.923 203.159 382.451C204.113 382.965 204.861 383.698 205.403 384.651C205.961 385.605 206.239 386.705 206.239 387.951C206.239 389.198 205.953 390.298 205.381 391.251C204.824 392.205 204.061 392.945 203.093 393.473C202.14 393.987 201.069 394.243 199.881 394.243ZM199.881 391.559C200.439 391.559 200.959 391.427 201.443 391.163C201.942 390.885 202.338 390.474 202.631 389.931C202.925 389.389 203.071 388.729 203.071 387.951C203.071 386.793 202.763 385.905 202.147 385.289C201.546 384.659 200.805 384.343 199.925 384.343C199.045 384.343 198.305 384.659 197.703 385.289C197.117 385.905 196.823 386.793 196.823 387.951C196.823 389.11 197.109 390.005 197.681 390.635C198.268 391.251 199.001 391.559 199.881 391.559ZM212.084 384.387V390.283C212.084 390.694 212.18 390.995 212.37 391.185C212.576 391.361 212.913 391.449 213.382 391.449H214.812V394.045H212.876C210.28 394.045 208.982 392.784 208.982 390.261V384.387H207.53V381.857H208.982V378.843H212.084V381.857H214.812V384.387H212.084ZM222.44 394.243C221.266 394.243 220.21 393.987 219.272 393.473C218.333 392.945 217.592 392.205 217.05 391.251C216.522 390.298 216.258 389.198 216.258 387.951C216.258 386.705 216.529 385.605 217.072 384.651C217.629 383.698 218.384 382.965 219.338 382.451C220.291 381.923 221.354 381.659 222.528 381.659C223.701 381.659 224.764 381.923 225.718 382.451C226.671 382.965 227.419 383.698 227.962 384.651C228.519 385.605 228.798 386.705 228.798 387.951C228.798 389.198 228.512 390.298 227.94 391.251C227.382 392.205 226.62 392.945 225.652 393.473C224.698 393.987 223.628 394.243 222.44 394.243ZM222.44 391.559C222.997 391.559 223.518 391.427 224.002 391.163C224.5 390.885 224.896 390.474 225.19 389.931C225.483 389.389 225.63 388.729 225.63 387.951C225.63 386.793 225.322 385.905 224.706 385.289C224.104 384.659 223.364 384.343 222.484 384.343C221.604 384.343 220.863 384.659 220.262 385.289C219.675 385.905 219.382 386.793 219.382 387.951C219.382 389.11 219.668 390.005 220.24 390.635C220.826 391.251 221.56 391.559 222.44 391.559ZM235.721 394.243C234.724 394.243 233.829 394.067 233.037 393.715C232.245 393.349 231.614 392.857 231.145 392.241C230.69 391.625 230.441 390.943 230.397 390.195H233.499C233.558 390.665 233.785 391.053 234.181 391.361C234.592 391.669 235.098 391.823 235.699 391.823C236.286 391.823 236.74 391.706 237.063 391.471C237.4 391.237 237.569 390.936 237.569 390.569C237.569 390.173 237.364 389.88 236.953 389.689C236.557 389.484 235.919 389.264 235.039 389.029C234.13 388.809 233.382 388.582 232.795 388.347C232.223 388.113 231.724 387.753 231.299 387.269C230.888 386.785 230.683 386.133 230.683 385.311C230.683 384.637 230.874 384.021 231.255 383.463C231.651 382.906 232.208 382.466 232.927 382.143C233.66 381.821 234.518 381.659 235.501 381.659C236.953 381.659 238.112 382.026 238.977 382.759C239.842 383.478 240.319 384.453 240.407 385.685H237.459C237.415 385.201 237.21 384.82 236.843 384.541C236.491 384.248 236.014 384.101 235.413 384.101C234.856 384.101 234.423 384.204 234.115 384.409C233.822 384.615 233.675 384.901 233.675 385.267C233.675 385.678 233.88 385.993 234.291 386.213C234.702 386.419 235.34 386.631 236.205 386.851C237.085 387.071 237.811 387.299 238.383 387.533C238.955 387.768 239.446 388.135 239.857 388.633C240.282 389.117 240.502 389.763 240.517 390.569C240.517 391.273 240.319 391.904 239.923 392.461C239.542 393.019 238.984 393.459 238.251 393.781C237.532 394.089 236.689 394.243 235.721 394.243Z" fill="black"/>
<g clip-path="url(#clip4_91_76)">
<rect x="10" y="427.045" width="410" height="200" rx="16" fill="#979797" fill-opacity="0.2"/>
<path d="M224.333 493.712H238.333" stroke="#979797" stroke-width="2" stroke-linecap="round" stroke-linejoin="round"/>
<path d="M231.333 486.712V500.712" stroke="#979797" stroke-width="2" stroke-linecap="round" stroke-linejoin="round"/>
<path d="M236 508.879V526.379C236 527.616 235.508 528.803 234.633 529.679C233.758 530.554 232.571 531.045 231.333 531.045H198.667C197.429 531.045 196.242 530.554 195.367 529.679C194.492 528.803 194 527.616 194 526.379V493.712C194 492.474 194.492 491.287 195.367 490.412C196.242 489.537 197.429 489.045 198.667 489.045H216.167" stroke="#979797" stroke-width="2" stroke-linecap="round" stroke-linejoin="round"/>
<path d="M236 517.045L228.799 509.845C227.924 508.97 226.737 508.478 225.5 508.478C224.263 508.478 223.076 508.97 222.201 509.845L201 531.045" stroke="#979797" stroke-width="2" stroke-linecap="round" stroke-linejoin="round"/>
<path d="M208 507.712C210.577 507.712 212.667 505.623 212.667 503.045C212.667 500.468 210.577 498.379 208 498.379C205.423 498.379 203.333 500.468 203.333 503.045C203.333 505.623 205.423 507.712 208 507.712Z" stroke="#979797" stroke-width="2" stroke-linecap="round" stroke-linejoin="round"/>
<path d="M134.17 566.157C133.423 566.157 132.751 566.029 132.154 565.773C131.557 565.507 131.087 565.133 130.746 564.653C130.405 564.173 130.234 563.613 130.234 562.973H132.186C132.229 563.453 132.415 563.848 132.746 564.157C133.087 564.467 133.562 564.621 134.17 564.621C134.799 564.621 135.29 564.472 135.642 564.173C135.994 563.864 136.17 563.469 136.17 562.989C136.17 562.616 136.058 562.312 135.834 562.077C135.621 561.843 135.349 561.661 135.018 561.533C134.698 561.405 134.25 561.267 133.674 561.117C132.949 560.925 132.357 560.733 131.898 560.541C131.45 560.339 131.066 560.029 130.746 559.613C130.426 559.197 130.266 558.643 130.266 557.949C130.266 557.309 130.426 556.749 130.746 556.269C131.066 555.789 131.514 555.421 132.09 555.165C132.666 554.909 133.333 554.781 134.09 554.781C135.167 554.781 136.047 555.053 136.73 555.597C137.423 556.131 137.807 556.867 137.882 557.805H135.866C135.834 557.4 135.642 557.053 135.29 556.765C134.938 556.477 134.474 556.333 133.898 556.333C133.375 556.333 132.949 556.467 132.618 556.733C132.287 557 132.122 557.384 132.122 557.885C132.122 558.227 132.223 558.509 132.426 558.733C132.639 558.947 132.906 559.117 133.226 559.245C133.546 559.373 133.983 559.512 134.538 559.661C135.274 559.864 135.871 560.067 136.33 560.269C136.799 560.472 137.194 560.787 137.514 561.213C137.845 561.629 138.01 562.189 138.01 562.893C138.01 563.459 137.855 563.992 137.546 564.493C137.247 564.995 136.805 565.4 136.218 565.709C135.642 566.008 134.959 566.157 134.17 566.157ZM148.37 561.421C148.37 561.752 148.349 562.051 148.306 562.317H141.57C141.624 563.021 141.885 563.587 142.354 564.013C142.824 564.44 143.4 564.653 144.082 564.653C145.064 564.653 145.757 564.243 146.162 563.421H148.13C147.864 564.232 147.378 564.899 146.674 565.421C145.981 565.933 145.117 566.189 144.082 566.189C143.24 566.189 142.482 566.003 141.81 565.629C141.149 565.245 140.626 564.712 140.242 564.029C139.869 563.336 139.682 562.536 139.682 561.629C139.682 560.723 139.864 559.928 140.226 559.245C140.6 558.552 141.117 558.019 141.778 557.645C142.45 557.272 143.218 557.085 144.082 557.085C144.914 557.085 145.656 557.267 146.306 557.629C146.957 557.992 147.464 558.504 147.826 559.165C148.189 559.816 148.37 560.568 148.37 561.421ZM146.466 560.845C146.456 560.173 146.216 559.635 145.746 559.229C145.277 558.824 144.696 558.621 144.002 558.621C143.373 558.621 142.834 558.824 142.386 559.229C141.938 559.624 141.672 560.163 141.586 560.845H146.466ZM152.117 554.205V566.045H150.293V554.205H152.117ZM162.72 561.421C162.72 561.752 162.699 562.051 162.656 562.317H155.92C155.973 563.021 156.235 563.587 156.704 564.013C157.173 564.44 157.749 564.653 158.432 564.653C159.413 564.653 160.107 564.243 160.512 563.421H162.48C162.213 564.232 161.728 564.899 161.024 565.421C160.331 565.933 159.467 566.189 158.432 566.189C157.589 566.189 156.832 566.003 156.16 565.629C155.499 565.245 154.976 564.712 154.592 564.029C154.219 563.336 154.032 562.536 154.032 561.629C154.032 560.723 154.213 559.928 154.576 559.245C154.949 558.552 155.467 558.019 156.128 557.645C156.8 557.272 157.568 557.085 158.432 557.085C159.264 557.085 160.005 557.267 160.656 557.629C161.307 557.992 161.813 558.504 162.176 559.165C162.539 559.816 162.72 560.568 162.72 561.421ZM160.816 560.845C160.805 560.173 160.565 559.635 160.096 559.229C159.627 558.824 159.045 558.621 158.352 558.621C157.723 558.621 157.184 558.824 156.736 559.229C156.288 559.624 156.021 560.163 155.936 560.845H160.816ZM164.035 561.629C164.035 560.723 164.216 559.928 164.579 559.245C164.952 558.552 165.464 558.019 166.115 557.645C166.766 557.272 167.512 557.085 168.355 557.085C169.422 557.085 170.302 557.341 170.995 557.853C171.699 558.355 172.174 559.075 172.419 560.013H170.451C170.291 559.576 170.035 559.235 169.683 558.989C169.331 558.744 168.888 558.621 168.355 558.621C167.608 558.621 167.011 558.888 166.563 559.421C166.126 559.944 165.907 560.68 165.907 561.629C165.907 562.579 166.126 563.32 166.563 563.853C167.011 564.387 167.608 564.653 168.355 564.653C169.411 564.653 170.11 564.189 170.451 563.261H172.419C172.163 564.157 171.683 564.872 170.979 565.405C170.275 565.928 169.4 566.189 168.355 566.189C167.512 566.189 166.766 566.003 166.115 565.629C165.464 565.245 164.952 564.712 164.579 564.029C164.216 563.336 164.035 562.536 164.035 561.629ZM176.493 558.717V563.597C176.493 563.928 176.567 564.168 176.717 564.317C176.877 564.456 177.143 564.525 177.517 564.525H178.637V566.045H177.197C176.375 566.045 175.746 565.853 175.309 565.469C174.871 565.085 174.653 564.461 174.653 563.597V558.717H173.613V557.229H174.653V555.037H176.493V557.229H178.637V558.717H176.493ZM192.714 557.229V566.045H190.89V565.005C190.602 565.368 190.223 565.656 189.754 565.869C189.295 566.072 188.805 566.173 188.282 566.173C187.589 566.173 186.965 566.029 186.41 565.741C185.866 565.453 185.434 565.027 185.114 564.461C184.805 563.896 184.65 563.213 184.65 562.413V557.229H186.458V562.141C186.458 562.931 186.655 563.539 187.05 563.965C187.445 564.381 187.983 564.589 188.666 564.589C189.349 564.589 189.887 564.381 190.282 563.965C190.687 563.539 190.89 562.931 190.89 562.141V557.229H192.714ZM197.073 558.525C197.382 558.12 197.803 557.779 198.337 557.501C198.87 557.224 199.473 557.085 200.145 557.085C200.913 557.085 201.611 557.277 202.241 557.661C202.881 558.035 203.382 558.563 203.745 559.245C204.107 559.928 204.289 560.712 204.289 561.597C204.289 562.483 204.107 563.277 203.745 563.981C203.382 564.675 202.881 565.219 202.241 565.613C201.611 565.997 200.913 566.189 200.145 566.189C199.473 566.189 198.875 566.056 198.353 565.789C197.83 565.512 197.403 565.171 197.073 564.765V570.237H195.249V557.229H197.073V558.525ZM202.433 561.597C202.433 560.989 202.305 560.467 202.049 560.029C201.803 559.581 201.473 559.245 201.057 559.021C200.651 558.787 200.214 558.669 199.745 558.669C199.286 558.669 198.849 558.787 198.433 559.021C198.027 559.256 197.697 559.597 197.441 560.045C197.195 560.493 197.073 561.021 197.073 561.629C197.073 562.237 197.195 562.771 197.441 563.229C197.697 563.677 198.027 564.019 198.433 564.253C198.849 564.488 199.286 564.605 199.745 564.605C200.214 564.605 200.651 564.488 201.057 564.253C201.473 564.008 201.803 563.656 202.049 563.197C202.305 562.739 202.433 562.205 202.433 561.597ZM212.633 558.717V563.597C212.633 563.928 212.707 564.168 212.857 564.317C213.017 564.456 213.283 564.525 213.657 564.525H214.777V566.045H213.337C212.515 566.045 211.886 565.853 211.449 565.469C211.011 565.085 210.793 564.461 210.793 563.597V558.717H209.753V557.229H210.793V555.037H212.633V557.229H214.777V558.717H212.633ZM220.41 566.189C219.578 566.189 218.826 566.003 218.154 565.629C217.482 565.245 216.954 564.712 216.57 564.029C216.186 563.336 215.994 562.536 215.994 561.629C215.994 560.733 216.191 559.939 216.586 559.245C216.98 558.552 217.519 558.019 218.202 557.645C218.884 557.272 219.647 557.085 220.49 557.085C221.332 557.085 222.095 557.272 222.778 557.645C223.46 558.019 223.999 558.552 224.394 559.245C224.788 559.939 224.986 560.733 224.986 561.629C224.986 562.525 224.783 563.32 224.378 564.013C223.972 564.707 223.418 565.245 222.714 565.629C222.02 566.003 221.252 566.189 220.41 566.189ZM220.41 564.605C220.879 564.605 221.316 564.493 221.722 564.269C222.138 564.045 222.474 563.709 222.73 563.261C222.986 562.813 223.114 562.269 223.114 561.629C223.114 560.989 222.991 560.451 222.746 560.013C222.5 559.565 222.175 559.229 221.77 559.005C221.364 558.781 220.927 558.669 220.458 558.669C219.988 558.669 219.551 558.781 219.146 559.005C218.751 559.229 218.436 559.565 218.202 560.013C217.967 560.451 217.85 560.989 217.85 561.629C217.85 562.579 218.09 563.315 218.57 563.837C219.06 564.349 219.674 564.605 220.41 564.605ZM230.929 557.261C230.993 556.269 231.372 555.496 232.065 554.941C232.769 554.387 233.665 554.109 234.753 554.109C235.5 554.109 236.145 554.243 236.689 554.509C237.233 554.776 237.644 555.139 237.921 555.597C238.199 556.056 238.337 556.573 238.337 557.149C238.337 557.811 238.161 558.376 237.809 558.845C237.457 559.315 237.036 559.629 236.545 559.789V559.853C237.175 560.045 237.665 560.397 238.017 560.909C238.369 561.411 238.545 562.056 238.545 562.845C238.545 563.475 238.401 564.035 238.113 564.525C237.825 565.016 237.399 565.405 236.833 565.693C236.268 565.971 235.591 566.109 234.801 566.109C233.649 566.109 232.7 565.816 231.953 565.229C231.217 564.632 230.823 563.779 230.769 562.669H232.529C232.572 563.235 232.791 563.699 233.185 564.061C233.58 564.413 234.113 564.589 234.785 564.589C235.436 564.589 235.937 564.413 236.289 564.061C236.641 563.699 236.817 563.235 236.817 562.669C236.817 561.923 236.577 561.395 236.097 561.085C235.628 560.765 234.903 560.605 233.921 560.605H233.505V559.101H233.937C234.801 559.091 235.457 558.947 235.905 558.669C236.364 558.392 236.593 557.955 236.593 557.357C236.593 556.845 236.428 556.44 236.097 556.141C235.767 555.832 235.297 555.677 234.689 555.677C234.092 555.677 233.628 555.832 233.297 556.141C232.967 556.44 232.769 556.813 232.705 557.261H230.929ZM246.937 558.525C247.247 558.12 247.668 557.779 248.201 557.501C248.735 557.224 249.337 557.085 250.009 557.085C250.777 557.085 251.476 557.277 252.105 557.661C252.745 558.035 253.247 558.563 253.609 559.245C253.972 559.928 254.153 560.712 254.153 561.597C254.153 562.483 253.972 563.277 253.609 563.981C253.247 564.675 252.745 565.219 252.105 565.613C251.476 565.997 250.777 566.189 250.009 566.189C249.337 566.189 248.74 566.056 248.217 565.789C247.695 565.512 247.268 565.171 246.937 564.765V570.237H245.113V557.229H246.937V558.525ZM252.297 561.597C252.297 560.989 252.169 560.467 251.913 560.029C251.668 559.581 251.337 559.245 250.921 559.021C250.516 558.787 250.079 558.669 249.609 558.669C249.151 558.669 248.713 558.787 248.297 559.021C247.892 559.256 247.561 559.597 247.305 560.045C247.06 560.493 246.937 561.021 246.937 561.629C246.937 562.237 247.06 562.771 247.305 563.229C247.561 563.677 247.892 564.019 248.297 564.253C248.713 564.488 249.151 564.605 249.609 564.605C250.079 564.605 250.516 564.488 250.921 564.253C251.337 564.008 251.668 563.656 251.913 563.197C252.169 562.739 252.297 562.205 252.297 561.597ZM260.645 557.085C261.317 557.085 261.915 557.229 262.437 557.517C262.971 557.805 263.387 558.232 263.685 558.797C263.995 559.363 264.149 560.045 264.149 560.845V566.045H262.341V561.117C262.341 560.328 262.144 559.725 261.749 559.309C261.355 558.883 260.816 558.669 260.133 558.669C259.451 558.669 258.907 558.883 258.501 559.309C258.107 559.725 257.909 560.328 257.909 561.117V566.045H256.085V554.205H257.909V558.253C258.219 557.88 258.608 557.592 259.077 557.389C259.557 557.187 260.08 557.085 260.645 557.085ZM270.428 566.189C269.596 566.189 268.844 566.003 268.172 565.629C267.5 565.245 266.972 564.712 266.588 564.029C266.204 563.336 266.012 562.536 266.012 561.629C266.012 560.733 266.209 559.939 266.604 559.245C266.998 558.552 267.537 558.019 268.22 557.645C268.902 557.272 269.665 557.085 270.508 557.085C271.35 557.085 272.113 557.272 272.796 557.645C273.478 558.019 274.017 558.552 274.412 559.245C274.806 559.939 275.004 560.733 275.004 561.629C275.004 562.525 274.801 563.32 274.396 564.013C273.99 564.707 273.436 565.245 272.732 565.629C272.038 566.003 271.27 566.189 270.428 566.189ZM270.428 564.605C270.897 564.605 271.334 564.493 271.74 564.269C272.156 564.045 272.492 563.709 272.748 563.261C273.004 562.813 273.132 562.269 273.132 561.629C273.132 560.989 273.009 560.451 272.764 560.013C272.518 559.565 272.193 559.229 271.788 559.005C271.382 558.781 270.945 558.669 270.476 558.669C270.006 558.669 269.569 558.781 269.164 559.005C268.769 559.229 268.454 559.565 268.22 560.013C267.985 560.451 267.868 560.989 267.868 561.629C267.868 562.579 268.108 563.315 268.588 563.837C269.078 564.349 269.692 564.605 270.428 564.605ZM279.063 558.717V563.597C279.063 563.928 279.138 564.168 279.287 564.317C279.447 564.456 279.714 564.525 280.087 564.525H281.207V566.045H279.767C278.946 566.045 278.316 565.853 277.879 565.469C277.442 565.085 277.223 564.461 277.223 563.597V558.717H276.183V557.229H277.223V555.037H279.063V557.229H281.207V558.717H279.063ZM286.84 566.189C286.008 566.189 285.256 566.003 284.584 565.629C283.912 565.245 283.384 564.712 283 564.029C282.616 563.336 282.424 562.536 282.424 561.629C282.424 560.733 282.621 559.939 283.016 559.245C283.411 558.552 283.949 558.019 284.632 557.645C285.315 557.272 286.077 557.085 286.92 557.085C287.763 557.085 288.525 557.272 289.208 557.645C289.891 558.019 290.429 558.552 290.824 559.245C291.219 559.939 291.416 560.733 291.416 561.629C291.416 562.525 291.213 563.32 290.808 564.013C290.403 564.707 289.848 565.245 289.144 565.629C288.451 566.003 287.683 566.189 286.84 566.189ZM286.84 564.605C287.309 564.605 287.747 564.493 288.152 564.269C288.568 564.045 288.904 563.709 289.16 563.261C289.416 562.813 289.544 562.269 289.544 561.629C289.544 560.989 289.421 560.451 289.176 560.013C288.931 559.565 288.605 559.229 288.2 559.005C287.795 558.781 287.357 558.669 286.888 558.669C286.419 558.669 285.981 558.781 285.576 559.005C285.181 559.229 284.867 559.565 284.632 560.013C284.397 560.451 284.28 560.989 284.28 561.629C284.28 562.579 284.52 563.315 285 563.837C285.491 564.349 286.104 564.605 286.84 564.605ZM296.547 566.189C295.854 566.189 295.23 566.067 294.675 565.821C294.131 565.565 293.699 565.224 293.379 564.797C293.059 564.36 292.889 563.875 292.867 563.341H294.755C294.787 563.715 294.963 564.029 295.283 564.285C295.614 564.531 296.025 564.653 296.515 564.653C297.027 564.653 297.422 564.557 297.699 564.365C297.987 564.163 298.131 563.907 298.131 563.597C298.131 563.267 297.971 563.021 297.651 562.861C297.342 562.701 296.846 562.525 296.163 562.333C295.502 562.152 294.963 561.976 294.547 561.805C294.131 561.635 293.769 561.373 293.459 561.021C293.161 560.669 293.011 560.205 293.011 559.629C293.011 559.16 293.15 558.733 293.427 558.349C293.705 557.955 294.099 557.645 294.611 557.421C295.134 557.197 295.731 557.085 296.403 557.085C297.406 557.085 298.211 557.341 298.819 557.853C299.438 558.355 299.769 559.043 299.811 559.917H297.987C297.955 559.523 297.795 559.208 297.507 558.973C297.219 558.739 296.83 558.621 296.339 558.621C295.859 558.621 295.491 558.712 295.235 558.893C294.979 559.075 294.851 559.315 294.851 559.613C294.851 559.848 294.937 560.045 295.107 560.205C295.278 560.365 295.486 560.493 295.731 560.589C295.977 560.675 296.339 560.787 296.819 560.925C297.459 561.096 297.982 561.272 298.387 561.453C298.803 561.624 299.161 561.88 299.459 562.221C299.758 562.563 299.913 563.016 299.923 563.581C299.923 564.083 299.785 564.531 299.507 564.925C299.23 565.32 298.835 565.629 298.323 565.853C297.822 566.077 297.23 566.189 296.547 566.189Z" fill="#979797"/>
</g>
<path d="M28.82 675.199C27.7493 675.199 26.7813 675.016 25.916 674.649C25.0653 674.283 24.3907 673.755 23.892 673.065C23.3933 672.376 23.1367 671.562 23.122 670.623H26.422C26.466 671.254 26.686 671.753 27.082 672.119C27.4927 672.486 28.05 672.669 28.754 672.669C29.4727 672.669 30.0373 672.501 30.448 672.163C30.8587 671.811 31.064 671.357 31.064 670.799C31.064 670.345 30.9247 669.971 30.646 669.677C30.3673 669.384 30.0153 669.157 29.59 668.995C29.1793 668.819 28.6073 668.629 27.874 668.423C26.8767 668.13 26.0627 667.844 25.432 667.565C24.816 667.272 24.2807 666.839 23.826 666.267C23.386 665.681 23.166 664.903 23.166 663.935C23.166 663.026 23.3933 662.234 23.848 661.559C24.3027 660.885 24.9407 660.371 25.762 660.019C26.5833 659.653 27.522 659.469 28.578 659.469C30.162 659.469 31.4453 659.858 32.428 660.635C33.4253 661.398 33.9753 662.469 34.078 663.847H30.69C30.6607 663.319 30.4333 662.887 30.008 662.549C29.5973 662.197 29.0473 662.021 28.358 662.021C27.7567 662.021 27.2727 662.175 26.906 662.483C26.554 662.791 26.378 663.239 26.378 663.825C26.378 664.236 26.51 664.581 26.774 664.859C27.0527 665.123 27.39 665.343 27.786 665.519C28.1967 665.681 28.7687 665.871 29.502 666.091C30.4993 666.385 31.3133 666.678 31.944 666.971C32.5747 667.265 33.1173 667.705 33.572 668.291C34.0267 668.878 34.254 669.648 34.254 670.601C34.254 671.423 34.0413 672.185 33.616 672.889C33.1907 673.593 32.5673 674.158 31.746 674.583C30.9247 674.994 29.9493 675.199 28.82 675.199ZM40.0043 658.765V675.045H36.9243V658.765H40.0043ZM54.3773 668.687C54.3773 669.127 54.348 669.523 54.2893 669.875H45.3793C45.4526 670.755 45.7606 671.445 46.3033 671.943C46.846 672.442 47.5133 672.691 48.3053 672.691C49.4493 672.691 50.2633 672.2 50.7473 671.217H54.0693C53.7173 672.391 53.0426 673.359 52.0453 674.121C51.048 674.869 49.8233 675.243 48.3713 675.243C47.198 675.243 46.142 674.987 45.2033 674.473C44.2793 673.945 43.5533 673.205 43.0253 672.251C42.512 671.298 42.2553 670.198 42.2553 668.951C42.2553 667.69 42.512 666.583 43.0253 665.629C43.5386 664.676 44.2573 663.943 45.1813 663.429C46.1053 662.916 47.1686 662.659 48.3713 662.659C49.53 662.659 50.564 662.909 51.4733 663.407C52.3973 663.906 53.1086 664.617 53.6073 665.541C54.1206 666.451 54.3773 667.499 54.3773 668.687ZM51.1873 667.807C51.1726 667.015 50.8866 666.385 50.3293 665.915C49.772 665.431 49.09 665.189 48.2833 665.189C47.5206 665.189 46.8753 665.424 46.3473 665.893C45.834 666.348 45.5186 666.986 45.4013 667.807H51.1873ZM67.9554 668.687C67.9554 669.127 67.9261 669.523 67.8674 669.875H58.9574C59.0308 670.755 59.3388 671.445 59.8814 671.943C60.4241 672.442 61.0914 672.691 61.8834 672.691C63.0274 672.691 63.8414 672.2 64.3254 671.217H67.6474C67.2954 672.391 66.6208 673.359 65.6234 674.121C64.6261 674.869 63.4014 675.243 61.9494 675.243C60.7761 675.243 59.7201 674.987 58.7814 674.473C57.8574 673.945 57.1314 673.205 56.6034 672.251C56.0901 671.298 55.8334 670.198 55.8334 668.951C55.8334 667.69 56.0901 666.583 56.6034 665.629C57.1168 664.676 57.8354 663.943 58.7594 663.429C59.6834 662.916 60.7468 662.659 61.9494 662.659C63.1081 662.659 64.1421 662.909 65.0514 663.407C65.9754 663.906 66.6868 664.617 67.1854 665.541C67.6988 666.451 67.9554 667.499 67.9554 668.687ZM64.7654 667.807C64.7508 667.015 64.4648 666.385 63.9074 665.915C63.3501 665.431 62.6681 665.189 61.8614 665.189C61.0988 665.189 60.4534 665.424 59.9254 665.893C59.4121 666.348 59.0968 666.986 58.9794 667.807H64.7654ZM73.2835 664.617C73.6795 664.06 74.2222 663.598 74.9115 663.231C75.6155 662.85 76.4149 662.659 77.3095 662.659C78.3509 662.659 79.2895 662.916 80.1255 663.429C80.9762 663.943 81.6435 664.676 82.1275 665.629C82.6262 666.568 82.8755 667.661 82.8755 668.907C82.8755 670.154 82.6262 671.261 82.1275 672.229C81.6435 673.183 80.9762 673.923 80.1255 674.451C79.2895 674.979 78.3509 675.243 77.3095 675.243C76.4149 675.243 75.6229 675.06 74.9335 674.693C74.2589 674.327 73.7089 673.865 73.2835 673.307V680.853H70.2035V662.857H73.2835V664.617ZM79.7295 668.907C79.7295 668.174 79.5755 667.543 79.2675 667.015C78.9742 666.473 78.5782 666.062 78.0795 665.783C77.5955 665.505 77.0675 665.365 76.4955 665.365C75.9382 665.365 75.4102 665.512 74.9115 665.805C74.4275 666.084 74.0315 666.495 73.7235 667.037C73.4302 667.58 73.2835 668.218 73.2835 668.951C73.2835 669.685 73.4302 670.323 73.7235 670.865C74.0315 671.408 74.4275 671.826 74.9115 672.119C75.4102 672.398 75.9382 672.537 76.4955 672.537C77.0675 672.537 77.5955 672.391 78.0795 672.097C78.5782 671.804 78.9742 671.386 79.2675 670.843C79.5755 670.301 79.7295 669.655 79.7295 668.907ZM95.0199 675.243C94.0226 675.243 93.1279 675.067 92.3359 674.715C91.5439 674.349 90.9132 673.857 90.4439 673.241C89.9892 672.625 89.7399 671.943 89.6959 671.195H92.7979C92.8566 671.665 93.0839 672.053 93.4799 672.361C93.8906 672.669 94.3966 672.823 94.9979 672.823C95.5846 672.823 96.0392 672.706 96.3619 672.471C96.6992 672.237 96.8679 671.936 96.8679 671.569C96.8679 671.173 96.6626 670.88 96.2519 670.689C95.8559 670.484 95.2179 670.264 94.3379 670.029C93.4286 669.809 92.6806 669.582 92.0939 669.347C91.5219 669.113 91.0232 668.753 90.5979 668.269C90.1872 667.785 89.9819 667.133 89.9819 666.311C89.9819 665.637 90.1726 665.021 90.5539 664.463C90.9499 663.906 91.5072 663.466 92.2259 663.143C92.9592 662.821 93.8172 662.659 94.7999 662.659C96.2519 662.659 97.4106 663.026 98.2759 663.759C99.1412 664.478 99.6179 665.453 99.7059 666.685H96.7579C96.7139 666.201 96.5086 665.82 96.1419 665.541C95.7899 665.248 95.3132 665.101 94.7119 665.101C94.1546 665.101 93.7219 665.204 93.4139 665.409C93.1206 665.615 92.9739 665.901 92.9739 666.267C92.9739 666.678 93.1792 666.993 93.5899 667.213C94.0006 667.419 94.6386 667.631 95.5039 667.851C96.3839 668.071 97.1099 668.299 97.6819 668.533C98.2539 668.768 98.7452 669.135 99.1559 669.633C99.5812 670.117 99.8012 670.763 99.8159 671.569C99.8159 672.273 99.6179 672.904 99.2219 673.461C98.8406 674.019 98.2832 674.459 97.5499 674.781C96.8312 675.089 95.9879 675.243 95.0199 675.243ZM101.552 668.951C101.552 667.69 101.809 666.59 102.322 665.651C102.836 664.698 103.547 663.965 104.456 663.451C105.366 662.923 106.407 662.659 107.58 662.659C109.091 662.659 110.338 663.041 111.32 663.803C112.318 664.551 112.985 665.607 113.322 666.971H110C109.824 666.443 109.524 666.033 109.098 665.739C108.688 665.431 108.174 665.277 107.558 665.277C106.678 665.277 105.982 665.6 105.468 666.245C104.955 666.876 104.698 667.778 104.698 668.951C104.698 670.11 104.955 671.012 105.468 671.657C105.982 672.288 106.678 672.603 107.558 672.603C108.805 672.603 109.619 672.046 110 670.931H113.322C112.985 672.251 112.318 673.3 111.32 674.077C110.323 674.855 109.076 675.243 107.58 675.243C106.407 675.243 105.366 674.987 104.456 674.473C103.547 673.945 102.836 673.212 102.322 672.273C101.809 671.32 101.552 670.213 101.552 668.951ZM122.443 662.681C123.367 662.681 124.188 662.887 124.907 663.297C125.625 663.693 126.183 664.287 126.579 665.079C126.989 665.857 127.195 666.795 127.195 667.895V675.045H124.115V668.313C124.115 667.345 123.873 666.605 123.389 666.091C122.905 665.563 122.245 665.299 121.409 665.299C120.558 665.299 119.883 665.563 119.385 666.091C118.901 666.605 118.659 667.345 118.659 668.313V675.045H115.579V658.765H118.659V664.375C119.055 663.847 119.583 663.437 120.243 663.143C120.903 662.835 121.636 662.681 122.443 662.681ZM141.453 668.687C141.453 669.127 141.424 669.523 141.365 669.875H132.455C132.529 670.755 132.837 671.445 133.379 671.943C133.922 672.442 134.589 672.691 135.381 672.691C136.525 672.691 137.339 672.2 137.823 671.217H141.145C140.793 672.391 140.119 673.359 139.121 674.121C138.124 674.869 136.899 675.243 135.447 675.243C134.274 675.243 133.218 674.987 132.279 674.473C131.355 673.945 130.629 673.205 130.101 672.251C129.588 671.298 129.331 670.198 129.331 668.951C129.331 667.69 129.588 666.583 130.101 665.629C130.615 664.676 131.333 663.943 132.257 663.429C133.181 662.916 134.245 662.659 135.447 662.659C136.606 662.659 137.64 662.909 138.549 663.407C139.473 663.906 140.185 664.617 140.683 665.541C141.197 666.451 141.453 667.499 141.453 668.687ZM138.263 667.807C138.249 667.015 137.963 666.385 137.405 665.915C136.848 665.431 136.166 665.189 135.359 665.189C134.597 665.189 133.951 665.424 133.423 665.893C132.91 666.348 132.595 666.986 132.477 667.807H138.263ZM142.91 668.907C142.91 667.675 143.152 666.583 143.636 665.629C144.134 664.676 144.809 663.943 145.66 663.429C146.51 662.916 147.456 662.659 148.498 662.659C149.29 662.659 150.045 662.835 150.764 663.187C151.482 663.525 152.054 663.979 152.48 664.551V658.765H155.604V675.045H152.48V673.241C152.098 673.843 151.563 674.327 150.874 674.693C150.184 675.06 149.385 675.243 148.476 675.243C147.449 675.243 146.51 674.979 145.66 674.451C144.809 673.923 144.134 673.183 143.636 672.229C143.152 671.261 142.91 670.154 142.91 668.907ZM152.502 668.951C152.502 668.203 152.355 667.565 152.062 667.037C151.768 666.495 151.372 666.084 150.874 665.805C150.375 665.512 149.84 665.365 149.268 665.365C148.696 665.365 148.168 665.505 147.684 665.783C147.2 666.062 146.804 666.473 146.496 667.015C146.202 667.543 146.056 668.174 146.056 668.907C146.056 669.641 146.202 670.286 146.496 670.843C146.804 671.386 147.2 671.804 147.684 672.097C148.182 672.391 148.71 672.537 149.268 672.537C149.84 672.537 150.375 672.398 150.874 672.119C151.372 671.826 151.768 671.415 152.062 670.887C152.355 670.345 152.502 669.699 152.502 668.951ZM170.118 662.857V675.045H167.016V673.505C166.62 674.033 166.099 674.451 165.454 674.759C164.823 675.053 164.134 675.199 163.386 675.199C162.432 675.199 161.589 675.001 160.856 674.605C160.122 674.195 159.543 673.601 159.118 672.823C158.707 672.031 158.502 671.093 158.502 670.007V662.857H161.582V669.567C161.582 670.535 161.824 671.283 162.308 671.811C162.792 672.325 163.452 672.581 164.288 672.581C165.138 672.581 165.806 672.325 166.29 671.811C166.774 671.283 167.016 670.535 167.016 669.567V662.857H170.118ZM176.237 658.765V675.045H173.157V658.765H176.237ZM190.61 668.687C190.61 669.127 190.58 669.523 190.522 669.875H181.612C181.685 670.755 181.993 671.445 182.536 671.943C183.078 672.442 183.746 672.691 184.538 672.691C185.682 672.691 186.496 672.2 186.98 671.217H190.302C189.95 672.391 189.275 673.359 188.278 674.121C187.28 674.869 186.056 675.243 184.604 675.243C183.43 675.243 182.374 674.987 181.436 674.473C180.512 673.945 179.786 673.205 179.258 672.251C178.744 671.298 178.488 670.198 178.488 668.951C178.488 667.69 178.744 666.583 179.258 665.629C179.771 664.676 180.49 663.943 181.414 663.429C182.338 662.916 183.401 662.659 184.604 662.659C185.762 662.659 186.796 662.909 187.706 663.407C188.63 663.906 189.341 664.617 189.84 665.541C190.353 666.451 190.61 667.499 190.61 668.687ZM187.42 667.807C187.405 667.015 187.119 666.385 186.562 665.915C186.004 665.431 185.322 665.189 184.516 665.189C183.753 665.189 183.108 665.424 182.58 665.893C182.066 666.348 181.751 666.986 181.634 667.807H187.42Z" fill="black"/>
<path d="M26.832 700.925C28.016 700.925 29.0507 701.155 29.936 701.613C30.832 702.061 31.52 702.712 32 703.565C32.4907 704.408 32.736 705.395 32.736 706.525C32.736 707.656 32.4907 708.637 32 709.469C31.52 710.301 30.832 710.941 29.936 711.389C29.0507 711.827 28.016 712.045 26.832 712.045H23.2V700.925H26.832ZM26.832 710.557C28.1333 710.557 29.1307 710.205 29.824 709.501C30.5173 708.797 30.864 707.805 30.864 706.525C30.864 705.235 30.5173 704.227 29.824 703.501C29.1307 702.776 28.1333 702.413 26.832 702.413H25.024V710.557H26.832ZM35.5998 702.061C35.2691 702.061 34.9918 701.949 34.7678 701.725C34.5438 701.501 34.4318 701.224 34.4318 700.893C34.4318 700.563 34.5438 700.285 34.7678 700.061C34.9918 699.837 35.2691 699.725 35.5998 699.725C35.9198 699.725 36.1918 699.837 36.4158 700.061C36.6398 700.285 36.7518 700.563 36.7518 700.893C36.7518 701.224 36.6398 701.501 36.4158 701.725C36.1918 701.949 35.9198 702.061 35.5998 702.061ZM36.4958 703.229V712.045H34.6718V703.229H36.4958ZM38.4105 707.597C38.4105 706.712 38.5918 705.928 38.9545 705.245C39.3278 704.563 39.8292 704.035 40.4585 703.661C41.0985 703.277 41.8078 703.085 42.5865 703.085C43.1625 703.085 43.7278 703.213 44.2825 703.469C44.8478 703.715 45.2958 704.045 45.6265 704.461V700.205H47.4665V712.045H45.6265V710.717C45.3278 711.144 44.9118 711.496 44.3785 711.773C43.8558 712.051 43.2532 712.189 42.5705 712.189C41.8025 712.189 41.0985 711.997 40.4585 711.613C39.8292 711.219 39.3278 710.675 38.9545 709.981C38.5918 709.277 38.4105 708.483 38.4105 707.597ZM45.6265 707.629C45.6265 707.021 45.4985 706.493 45.2425 706.045C44.9972 705.597 44.6718 705.256 44.2665 705.021C43.8612 704.787 43.4238 704.669 42.9545 704.669C42.4852 704.669 42.0478 704.787 41.6425 705.021C41.2372 705.245 40.9065 705.581 40.6505 706.029C40.4052 706.467 40.2825 706.989 40.2825 707.597C40.2825 708.205 40.4052 708.739 40.6505 709.197C40.9065 709.656 41.2372 710.008 41.6425 710.253C42.0585 710.488 42.4958 710.605 42.9545 710.605C43.4238 710.605 43.8612 710.488 44.2665 710.253C44.6718 710.019 44.9972 709.677 45.2425 709.229C45.4985 708.771 45.6265 708.237 45.6265 707.629ZM62.2105 703.229L56.8025 716.189H54.9145L56.7065 711.901L53.2345 703.229H55.2665L57.7465 709.949L60.3225 703.229H62.2105ZM67.539 712.189C66.707 712.189 65.955 712.003 65.283 711.629C64.611 711.245 64.083 710.712 63.699 710.029C63.315 709.336 63.123 708.536 63.123 707.629C63.123 706.733 63.3203 705.939 63.715 705.245C64.1097 704.552 64.6483 704.019 65.331 703.645C66.0137 703.272 66.7763 703.085 67.619 703.085C68.4617 703.085 69.2243 703.272 69.907 703.645C70.5897 704.019 71.1283 704.552 71.523 705.245C71.9177 705.939 72.115 706.733 72.115 707.629C72.115 708.525 71.9123 709.32 71.507 710.013C71.1017 710.707 70.547 711.245 69.843 711.629C69.1497 712.003 68.3817 712.189 67.539 712.189ZM67.539 710.605C68.0083 710.605 68.4457 710.493 68.851 710.269C69.267 710.045 69.603 709.709 69.859 709.261C70.115 708.813 70.243 708.269 70.243 707.629C70.243 706.989 70.1203 706.451 69.875 706.013C69.6297 705.565 69.3043 705.229 68.899 705.005C68.4937 704.781 68.0563 704.669 67.587 704.669C67.1177 704.669 66.6803 704.781 66.275 705.005C65.8803 705.229 65.5657 705.565 65.331 706.013C65.0963 706.451 64.979 706.989 64.979 707.629C64.979 708.579 65.219 709.315 65.699 709.837C66.1897 710.349 66.803 710.605 67.539 710.605ZM82.0301 703.229V712.045H80.2061V711.005C79.9181 711.368 79.5395 711.656 79.0701 711.869C78.6115 712.072 78.1208 712.173 77.5981 712.173C76.9048 712.173 76.2808 712.029 75.7261 711.741C75.1821 711.453 74.7501 711.027 74.4301 710.461C74.1208 709.896 73.9661 709.213 73.9661 708.413V703.229H75.7741V708.141C75.7741 708.931 75.9715 709.539 76.3661 709.965C76.7608 710.381 77.2995 710.589 77.9821 710.589C78.6648 710.589 79.2035 710.381 79.5981 709.965C80.0035 709.539 80.2061 708.931 80.2061 708.141V703.229H82.0301ZM92.401 703.085C93.0837 703.085 93.6863 703.224 94.209 703.501C94.7423 703.768 95.1583 704.104 95.457 704.509V703.229H97.297V712.189C97.297 713 97.1263 713.72 96.785 714.349C96.4437 714.989 95.9477 715.491 95.297 715.853C94.657 716.216 93.889 716.397 92.993 716.397C91.7983 716.397 90.8063 716.115 90.017 715.549C89.2277 714.995 88.7797 714.237 88.673 713.277H90.481C90.6197 713.736 90.913 714.104 91.361 714.381C91.8197 714.669 92.3637 714.813 92.993 714.813C93.729 714.813 94.321 714.589 94.769 714.141C95.2277 713.693 95.457 713.043 95.457 712.189V710.717C95.1477 711.133 94.7263 711.485 94.193 711.773C93.6703 712.051 93.073 712.189 92.401 712.189C91.633 712.189 90.929 711.997 90.289 711.613C89.6597 711.219 89.1583 710.675 88.785 709.981C88.4223 709.277 88.241 708.483 88.241 707.597C88.241 706.712 88.4223 705.928 88.785 705.245C89.1583 704.563 89.6597 704.035 90.289 703.661C90.929 703.277 91.633 703.085 92.401 703.085ZM95.457 707.629C95.457 707.021 95.329 706.493 95.073 706.045C94.8277 705.597 94.5023 705.256 94.097 705.021C93.6917 704.787 93.2543 704.669 92.785 704.669C92.3157 704.669 91.8783 704.787 91.473 705.021C91.0677 705.245 90.737 705.581 90.481 706.029C90.2357 706.467 90.113 706.989 90.113 707.597C90.113 708.205 90.2357 708.739 90.481 709.197C90.737 709.656 91.0677 710.008 91.473 710.253C91.889 710.488 92.3263 710.605 92.785 710.605C93.2543 710.605 93.6917 710.488 94.097 710.253C94.5023 710.019 94.8277 709.677 95.073 709.229C95.329 708.771 95.457 708.237 95.457 707.629ZM107.901 707.421C107.901 707.752 107.879 708.051 107.837 708.317H101.101C101.154 709.021 101.415 709.587 101.885 710.013C102.354 710.44 102.93 710.653 103.613 710.653C104.594 710.653 105.287 710.243 105.693 709.421H107.661C107.394 710.232 106.909 710.899 106.205 711.421C105.511 711.933 104.647 712.189 103.613 712.189C102.77 712.189 102.013 712.003 101.341 711.629C100.679 711.245 100.157 710.712 99.7728 710.029C99.3994 709.336 99.2128 708.536 99.2128 707.629C99.2128 706.723 99.3941 705.928 99.7568 705.245C100.13 704.552 100.647 704.019 101.309 703.645C101.981 703.272 102.749 703.085 103.613 703.085C104.445 703.085 105.186 703.267 105.837 703.629C106.487 703.992 106.994 704.504 107.357 705.165C107.719 705.816 107.901 706.568 107.901 707.421ZM105.997 706.845C105.986 706.173 105.746 705.635 105.277 705.229C104.807 704.824 104.226 704.621 103.533 704.621C102.903 704.621 102.365 704.824 101.917 705.229C101.469 705.624 101.202 706.163 101.117 706.845H105.997ZM111.952 704.717V709.597C111.952 709.928 112.026 710.168 112.176 710.317C112.336 710.456 112.602 710.525 112.976 710.525H114.096V712.045H112.656C111.834 712.045 111.205 711.853 110.768 711.469C110.33 711.085 110.112 710.461 110.112 709.597V704.717H109.072V703.229H110.112V701.037H111.952V703.229H114.096V704.717H111.952ZM128.269 707.421C128.269 707.752 128.248 708.051 128.205 708.317H121.469C121.522 709.021 121.784 709.587 122.253 710.013C122.722 710.44 123.298 710.653 123.981 710.653C124.962 710.653 125.656 710.243 126.061 709.421H128.029C127.762 710.232 127.277 710.899 126.573 711.421C125.88 711.933 125.016 712.189 123.981 712.189C123.138 712.189 122.381 712.003 121.709 711.629C121.048 711.245 120.525 710.712 120.141 710.029C119.768 709.336 119.581 708.536 119.581 707.629C119.581 706.723 119.762 705.928 120.125 705.245C120.498 704.552 121.016 704.019 121.677 703.645C122.349 703.272 123.117 703.085 123.981 703.085C124.813 703.085 125.554 703.267 126.205 703.629C126.856 703.992 127.362 704.504 127.725 705.165C128.088 705.816 128.269 706.568 128.269 707.421ZM126.365 706.845C126.354 706.173 126.114 705.635 125.645 705.229C125.176 704.824 124.594 704.621 123.901 704.621C123.272 704.621 122.733 704.824 122.285 705.229C121.837 705.624 121.57 706.163 121.485 706.845H126.365ZM134.64 703.085C135.333 703.085 135.952 703.229 136.496 703.517C137.051 703.805 137.483 704.232 137.792 704.797C138.101 705.363 138.256 706.045 138.256 706.845V712.045H136.448V707.117C136.448 706.328 136.251 705.725 135.856 705.309C135.461 704.883 134.923 704.669 134.24 704.669C133.557 704.669 133.013 704.883 132.608 705.309C132.213 705.725 132.016 706.328 132.016 707.117V712.045H130.192V703.229H132.016V704.237C132.315 703.875 132.693 703.592 133.152 703.389C133.621 703.187 134.117 703.085 134.64 703.085ZM144.535 712.189C143.703 712.189 142.951 712.003 142.279 711.629C141.607 711.245 141.079 710.712 140.695 710.029C140.311 709.336 140.119 708.536 140.119 707.629C140.119 706.733 140.316 705.939 140.711 705.245C141.105 704.552 141.644 704.019 142.327 703.645C143.009 703.272 143.772 703.085 144.615 703.085C145.457 703.085 146.22 703.272 146.903 703.645C147.585 704.019 148.124 704.552 148.519 705.245C148.913 705.939 149.111 706.733 149.111 707.629C149.111 708.525 148.908 709.32 148.503 710.013C148.097 710.707 147.543 711.245 146.839 711.629C146.145 712.003 145.377 712.189 144.535 712.189ZM144.535 710.605C145.004 710.605 145.441 710.493 145.847 710.269C146.263 710.045 146.599 709.709 146.855 709.261C147.111 708.813 147.239 708.269 147.239 707.629C147.239 706.989 147.116 706.451 146.871 706.013C146.625 705.565 146.3 705.229 145.895 705.005C145.489 704.781 145.052 704.669 144.583 704.669C144.113 704.669 143.676 704.781 143.271 705.005C142.876 705.229 142.561 705.565 142.327 706.013C142.092 706.451 141.975 706.989 141.975 707.629C141.975 708.579 142.215 709.315 142.695 709.837C143.185 710.349 143.799 710.605 144.535 710.605ZM159.026 703.229V712.045H157.202V711.005C156.914 711.368 156.535 711.656 156.066 711.869C155.607 712.072 155.117 712.173 154.594 712.173C153.901 712.173 153.277 712.029 152.722 711.741C152.178 711.453 151.746 711.027 151.426 710.461C151.117 709.896 150.962 709.213 150.962 708.413V703.229H152.77V708.141C152.77 708.931 152.967 709.539 153.362 709.965C153.757 710.381 154.295 710.589 154.978 710.589C155.661 710.589 156.199 710.381 156.594 709.965C156.999 709.539 157.202 708.931 157.202 708.141V703.229H159.026ZM165.113 703.085C165.795 703.085 166.398 703.224 166.921 703.501C167.454 703.768 167.87 704.104 168.169 704.509V703.229H170.009V712.189C170.009 713 169.838 713.72 169.497 714.349C169.155 714.989 168.659 715.491 168.009 715.853C167.369 716.216 166.601 716.397 165.705 716.397C164.51 716.397 163.518 716.115 162.729 715.549C161.939 714.995 161.491 714.237 161.385 713.277H163.193C163.331 713.736 163.625 714.104 164.073 714.381C164.531 714.669 165.075 714.813 165.705 714.813C166.441 714.813 167.033 714.589 167.481 714.141C167.939 713.693 168.169 713.043 168.169 712.189V710.717C167.859 711.133 167.438 711.485 166.905 711.773C166.382 712.051 165.785 712.189 165.113 712.189C164.345 712.189 163.641 711.997 163.001 711.613C162.371 711.219 161.87 710.675 161.497 709.981C161.134 709.277 160.953 708.483 160.953 707.597C160.953 706.712 161.134 705.928 161.497 705.245C161.87 704.563 162.371 704.035 163.001 703.661C163.641 703.277 164.345 703.085 165.113 703.085ZM168.169 707.629C168.169 707.021 168.041 706.493 167.785 706.045C167.539 705.597 167.214 705.256 166.809 705.021C166.403 704.787 165.966 704.669 165.497 704.669C165.027 704.669 164.59 704.787 164.185 705.021C163.779 705.245 163.449 705.581 163.193 706.029C162.947 706.467 162.825 706.989 162.825 707.597C162.825 708.205 162.947 708.739 163.193 709.197C163.449 709.656 163.779 710.008 164.185 710.253C164.601 710.488 165.038 710.605 165.497 710.605C165.966 710.605 166.403 710.488 166.809 710.253C167.214 710.019 167.539 709.677 167.785 709.229C168.041 708.771 168.169 708.237 168.169 707.629ZM177.092 703.085C177.764 703.085 178.362 703.229 178.884 703.517C179.418 703.805 179.834 704.232 180.132 704.797C180.442 705.363 180.596 706.045 180.596 706.845V712.045H178.788V707.117C178.788 706.328 178.591 705.725 178.196 705.309C177.802 704.883 177.263 704.669 176.58 704.669C175.898 704.669 175.354 704.883 174.948 705.309C174.554 705.725 174.356 706.328 174.356 707.117V712.045H172.532V700.205H174.356V704.253C174.666 703.88 175.055 703.592 175.524 703.389C176.004 703.187 176.527 703.085 177.092 703.085ZM190.535 712.189C189.842 712.189 189.218 712.067 188.663 711.821C188.119 711.565 187.687 711.224 187.367 710.797C187.047 710.36 186.876 709.875 186.855 709.341H188.743C188.775 709.715 188.951 710.029 189.271 710.285C189.602 710.531 190.012 710.653 190.503 710.653C191.015 710.653 191.41 710.557 191.687 710.365C191.975 710.163 192.119 709.907 192.119 709.597C192.119 709.267 191.959 709.021 191.639 708.861C191.33 708.701 190.834 708.525 190.151 708.333C189.49 708.152 188.951 707.976 188.535 707.805C188.119 707.635 187.756 707.373 187.447 707.021C187.148 706.669 186.999 706.205 186.999 705.629C186.999 705.16 187.138 704.733 187.415 704.349C187.692 703.955 188.087 703.645 188.599 703.421C189.122 703.197 189.719 703.085 190.391 703.085C191.394 703.085 192.199 703.341 192.807 703.853C193.426 704.355 193.756 705.043 193.799 705.917H191.975C191.943 705.523 191.783 705.208 191.495 704.973C191.207 704.739 190.818 704.621 190.327 704.621C189.847 704.621 189.479 704.712 189.223 704.893C188.967 705.075 188.839 705.315 188.839 705.613C188.839 705.848 188.924 706.045 189.095 706.205C189.266 706.365 189.474 706.493 189.719 706.589C189.964 706.675 190.327 706.787 190.807 706.925C191.447 707.096 191.97 707.272 192.375 707.453C192.791 707.624 193.148 707.88 193.447 708.221C193.746 708.563 193.9 709.016 193.911 709.581C193.911 710.083 193.772 710.531 193.495 710.925C193.218 711.32 192.823 711.629 192.311 711.853C191.81 712.077 191.218 712.189 190.535 712.189ZM197.834 700.205V712.045H196.01V700.205H197.834ZM208.437 707.421C208.437 707.752 208.415 708.051 208.373 708.317H201.637C201.69 709.021 201.951 709.587 202.421 710.013C202.89 710.44 203.466 710.653 204.149 710.653C205.13 710.653 205.823 710.243 206.229 709.421H208.197C207.93 710.232 207.445 710.899 206.741 711.421C206.047 711.933 205.183 712.189 204.149 712.189C203.306 712.189 202.549 712.003 201.877 711.629C201.215 711.245 200.693 710.712 200.309 710.029C199.935 709.336 199.749 708.536 199.749 707.629C199.749 706.723 199.93 705.928 200.293 705.245C200.666 704.552 201.183 704.019 201.845 703.645C202.517 703.272 203.285 703.085 204.149 703.085C204.981 703.085 205.722 703.267 206.373 703.629C207.023 703.992 207.53 704.504 207.893 705.165C208.255 705.816 208.437 706.568 208.437 707.421ZM206.533 706.845C206.522 706.173 206.282 705.635 205.813 705.229C205.343 704.824 204.762 704.621 204.069 704.621C203.439 704.621 202.901 704.824 202.453 705.229C202.005 705.624 201.738 706.163 201.653 706.845H206.533ZM218.44 707.421C218.44 707.752 218.418 708.051 218.376 708.317H211.64C211.693 709.021 211.954 709.587 212.424 710.013C212.893 710.44 213.469 710.653 214.152 710.653C215.133 710.653 215.826 710.243 216.232 709.421H218.2C217.933 710.232 217.448 710.899 216.744 711.421C216.05 711.933 215.186 712.189 214.152 712.189C213.309 712.189 212.552 712.003 211.88 711.629C211.218 711.245 210.696 710.712 210.312 710.029C209.938 709.336 209.752 708.536 209.752 707.629C209.752 706.723 209.933 705.928 210.296 705.245C210.669 704.552 211.186 704.019 211.848 703.645C212.52 703.272 213.288 703.085 214.152 703.085C214.984 703.085 215.725 703.267 216.376 703.629C217.026 703.992 217.533 704.504 217.896 705.165C218.258 705.816 218.44 706.568 218.44 707.421ZM216.536 706.845C216.525 706.173 216.285 705.635 215.816 705.229C215.346 704.824 214.765 704.621 214.072 704.621C213.442 704.621 212.904 704.824 212.456 705.229C212.008 705.624 211.741 706.163 211.656 706.845H216.536ZM222.187 704.525C222.496 704.12 222.917 703.779 223.451 703.501C223.984 703.224 224.587 703.085 225.259 703.085C226.027 703.085 226.725 703.277 227.355 703.661C227.995 704.035 228.496 704.563 228.859 705.245C229.221 705.928 229.403 706.712 229.403 707.597C229.403 708.483 229.221 709.277 228.859 709.981C228.496 710.675 227.995 711.219 227.355 711.613C226.725 711.997 226.027 712.189 225.259 712.189C224.587 712.189 223.989 712.056 223.467 711.789C222.944 711.512 222.517 711.171 222.187 710.765V716.237H220.363V703.229H222.187V704.525ZM227.547 707.597C227.547 706.989 227.419 706.467 227.163 706.029C226.917 705.581 226.587 705.245 226.171 705.021C225.765 704.787 225.328 704.669 224.859 704.669C224.4 704.669 223.963 704.787 223.547 705.021C223.141 705.256 222.811 705.597 222.555 706.045C222.309 706.493 222.187 707.021 222.187 707.629C222.187 708.237 222.309 708.771 222.555 709.229C222.811 709.677 223.141 710.019 223.547 710.253C223.963 710.488 224.4 710.605 224.859 710.605C225.328 710.605 225.765 710.488 226.171 710.253C226.587 710.008 226.917 709.656 227.163 709.197C227.419 708.739 227.547 708.205 227.547 707.597ZM234.327 700.765C235.415 700.765 236.284 701.064 236.935 701.661C237.596 702.259 237.927 703.075 237.927 704.109C237.927 705.187 237.585 705.997 236.903 706.541C236.22 707.085 235.313 707.357 234.183 707.357L234.119 708.621H232.535L232.455 706.109H232.983C234.017 706.109 234.807 705.971 235.351 705.693C235.905 705.416 236.183 704.888 236.183 704.109C236.183 703.544 236.017 703.101 235.687 702.781C235.367 702.461 234.919 702.301 234.343 702.301C233.767 702.301 233.313 702.456 232.983 702.765C232.652 703.075 232.487 703.507 232.487 704.061H230.775C230.775 703.421 230.919 702.851 231.207 702.349C231.495 701.848 231.905 701.459 232.439 701.181C232.983 700.904 233.612 700.765 234.327 700.765ZM233.303 712.157C232.972 712.157 232.695 712.045 232.471 711.821C232.247 711.597 232.135 711.32 232.135 710.989C232.135 710.659 232.247 710.381 232.471 710.157C232.695 709.933 232.972 709.821 233.303 709.821C233.623 709.821 233.895 709.933 234.119 710.157C234.343 710.381 234.455 710.659 234.455 710.989C234.455 711.32 234.343 711.597 234.119 711.821C233.895 712.045 233.623 712.157 233.303 712.157Z" fill="black"/>
<g clip-path="url(#clip5_91_76)">
<rect x="10" y="742.045" width="410" height="58" rx="16" fill="#979797" fill-opacity="0.2"/>
<path d="M178.667 781.712V771.045C178.667 770.338 178.948 769.66 179.448 769.16C179.948 768.66 180.626 768.379 181.333 768.379H202.667C203.374 768.379 204.052 768.66 204.552 769.16C205.052 769.66 205.333 770.338 205.333 771.045V781.712" stroke="black" stroke-width="2" stroke-linecap="round" stroke-linejoin="round"/>
<path d="M181.333 768.379V763.045C181.333 762.338 181.614 761.66 182.114 761.16C182.614 760.66 183.293 760.379 184 760.379H200C200.707 760.379 201.385 760.66 201.886 761.16C202.386 761.66 202.667 762.338 202.667 763.045V768.379" stroke="black" stroke-width="2" stroke-linecap="round" stroke-linejoin="round"/>
<path d="M192 760.379V768.379" stroke="black" stroke-width="2" stroke-linecap="round" stroke-linejoin="round"/>
<path d="M178.667 779.045H205.333" stroke="black" stroke-width="2" stroke-linecap="round" stroke-linejoin="round"/>
<path d="M217.397 777.405V773.541L226.245 760.885H231.593V773.261H233.889V777.405H231.593V781.045H226.805V777.405H217.397ZM227.141 766.149L222.437 773.261H227.141V766.149Z" fill="black"/>
<path d="M249.065 768.085C249.737 768.085 250.334 768.229 250.857 768.517C251.39 768.805 251.806 769.232 252.105 769.797C252.414 770.363 252.569 771.045 252.569 771.845V777.045H250.761V772.117C250.761 771.328 250.563 770.725 250.169 770.309C249.774 769.883 249.235 769.669 248.553 769.669C247.87 769.669 247.326 769.883 246.921 770.309C246.526 770.725 246.329 771.328 246.329 772.117V777.045H244.505V765.205H246.329V769.253C246.638 768.88 247.027 768.592 247.497 768.389C247.977 768.187 248.499 768.085 249.065 768.085Z" fill="black"/>
</g>
<rect x="10" y="828" width="410" height="48" rx="16" fill="#7EC8D3"/>
<path d="M178.246 852.416C178.246 851.328 178.496 850.352 178.998 849.488C179.51 848.624 180.198 847.952 181.062 847.472C181.936 846.981 182.891 846.736 183.926 846.736C185.11 846.736 186.16 847.029 187.078 847.616C188.006 848.192 188.678 849.013 189.094 850.08H186.902C186.614 849.493 186.214 849.056 185.702 848.768C185.19 848.48 184.598 848.336 183.926 848.336C183.19 848.336 182.534 848.501 181.958 848.832C181.382 849.163 180.928 849.637 180.598 850.256C180.278 850.875 180.118 851.595 180.118 852.416C180.118 853.237 180.278 853.957 180.598 854.576C180.928 855.195 181.382 855.675 181.958 856.016C182.534 856.347 183.19 856.512 183.926 856.512C184.598 856.512 185.19 856.368 185.702 856.08C186.214 855.792 186.614 855.355 186.902 854.768H189.094C188.678 855.835 188.006 856.656 187.078 857.232C186.16 857.808 185.11 858.096 183.926 858.096C182.88 858.096 181.926 857.856 181.062 857.376C180.198 856.885 179.51 856.208 178.998 855.344C178.496 854.48 178.246 853.504 178.246 852.416ZM195.181 858.144C194.349 858.144 193.597 857.957 192.925 857.584C192.253 857.2 191.725 856.667 191.341 855.984C190.957 855.291 190.765 854.491 190.765 853.584C190.765 852.688 190.962 851.893 191.357 851.2C191.751 850.507 192.29 849.973 192.973 849.6C193.655 849.227 194.418 849.04 195.261 849.04C196.103 849.04 196.866 849.227 197.549 849.6C198.231 849.973 198.77 850.507 199.165 851.2C199.559 851.893 199.757 852.688 199.757 853.584C199.757 854.48 199.554 855.275 199.149 855.968C198.743 856.661 198.189 857.2 197.485 857.584C196.791 857.957 196.023 858.144 195.181 858.144ZM195.181 856.56C195.65 856.56 196.087 856.448 196.493 856.224C196.909 856 197.245 855.664 197.501 855.216C197.757 854.768 197.885 854.224 197.885 853.584C197.885 852.944 197.762 852.405 197.517 851.968C197.271 851.52 196.946 851.184 196.541 850.96C196.135 850.736 195.698 850.624 195.229 850.624C194.759 850.624 194.322 850.736 193.917 850.96C193.522 851.184 193.207 851.52 192.973 851.968C192.738 852.405 192.621 852.944 192.621 853.584C192.621 854.533 192.861 855.269 193.341 855.792C193.831 856.304 194.445 856.56 195.181 856.56ZM206.136 849.04C206.829 849.04 207.448 849.184 207.992 849.472C208.546 849.76 208.978 850.187 209.288 850.752C209.597 851.317 209.752 852 209.752 852.8V858H207.944V853.072C207.944 852.283 207.746 851.68 207.352 851.264C206.957 850.837 206.418 850.624 205.736 850.624C205.053 850.624 204.509 850.837 204.104 851.264C203.709 851.68 203.512 852.283 203.512 853.072V858H201.688V849.184H203.512V850.192C203.81 849.829 204.189 849.547 204.648 849.344C205.117 849.141 205.613 849.04 206.136 849.04ZM214.334 850.672V855.552C214.334 855.883 214.409 856.123 214.558 856.272C214.718 856.411 214.985 856.48 215.358 856.48H216.478V858H215.038C214.217 858 213.588 857.808 213.15 857.424C212.713 857.04 212.494 856.416 212.494 855.552V850.672H211.454V849.184H212.494V846.992H214.334V849.184H216.478V850.672H214.334ZM219.215 848.016C218.885 848.016 218.607 847.904 218.383 847.68C218.159 847.456 218.047 847.179 218.047 846.848C218.047 846.517 218.159 846.24 218.383 846.016C218.607 845.792 218.885 845.68 219.215 845.68C219.535 845.68 219.807 845.792 220.031 846.016C220.255 846.24 220.367 846.517 220.367 846.848C220.367 847.179 220.255 847.456 220.031 847.68C219.807 847.904 219.535 848.016 219.215 848.016ZM220.111 849.184V858H218.287V849.184H220.111ZM227.082 849.04C227.776 849.04 228.394 849.184 228.938 849.472C229.493 849.76 229.925 850.187 230.234 850.752C230.544 851.317 230.698 852 230.698 852.8V858H228.89V853.072C228.89 852.283 228.693 851.68 228.298 851.264C227.904 850.837 227.365 850.624 226.682 850.624C226 850.624 225.456 850.837 225.05 851.264C224.656 851.68 224.458 852.283 224.458 853.072V858H222.634V849.184H224.458V850.192C224.757 849.829 225.136 849.547 225.594 849.344C226.064 849.141 226.56 849.04 227.082 849.04ZM241.137 849.184V858H239.313V856.96C239.025 857.323 238.646 857.611 238.177 857.824C237.718 858.027 237.227 858.128 236.705 858.128C236.011 858.128 235.387 857.984 234.833 857.696C234.289 857.408 233.857 856.981 233.537 856.416C233.227 855.851 233.073 855.168 233.073 854.368V849.184H234.881V854.096C234.881 854.885 235.078 855.493 235.473 855.92C235.867 856.336 236.406 856.544 237.089 856.544C237.771 856.544 238.31 856.336 238.705 855.92C239.11 855.493 239.313 854.885 239.313 854.096V849.184H241.137ZM251.751 853.376C251.751 853.707 251.73 854.005 251.687 854.272H244.951C245.005 854.976 245.266 855.541 245.735 855.968C246.205 856.395 246.781 856.608 247.463 856.608C248.445 856.608 249.138 856.197 249.543 855.376H251.511C251.245 856.187 250.759 856.853 250.055 857.376C249.362 857.888 248.498 858.144 247.463 858.144C246.621 858.144 245.863 857.957 245.191 857.584C244.53 857.2 244.007 856.667 243.623 855.984C243.25 855.291 243.063 854.491 243.063 853.584C243.063 852.677 243.245 851.883 243.607 851.2C243.981 850.507 244.498 849.973 245.159 849.6C245.831 849.227 246.599 849.04 247.463 849.04C248.295 849.04 249.037 849.221 249.687 849.584C250.338 849.947 250.845 850.459 251.207 851.12C251.57 851.771 251.751 852.523 251.751 853.376ZM249.847 852.8C249.837 852.128 249.597 851.589 249.127 851.184C248.658 850.779 248.077 850.576 247.383 850.576C246.754 850.576 246.215 850.779 245.767 851.184C245.319 851.579 245.053 852.117 244.967 852.8H249.847Z" fill="white"/>
<rect x="147" y="909" width="135" height="5" rx="2.5" fill="#191D31"/>
<defs>
<clipPath id="clip0_91_76">
<rect width="57.7376" height="22.4535" fill="white" transform="translate(32.4535 22.8306)"/>
</clipPath>
<clipPath id="clip1_91_76">
<rect width="410" height="200" fill="white" transform="translate(10 146.045)"/>
</clipPath>
<clipPath id="clip2_91_76">
<rect width="386" height="142" fill="white" transform="translate(22 192.045)"/>
</clipPath>
<clipPath id="clip3_91_76">
<rect width="386" height="40" fill="white" transform="translate(22 294.045)"/>
</clipPath>
<clipPath id="clip4_91_76">
<rect width="410" height="200" fill="white" transform="translate(10 427.045)"/>
</clipPath>
<clipPath id="clip5_91_76">
<rect width="410" height="58" fill="white" transform="translate(10 742.045)"/>
</clipPath>
</defs>
</svg>
